<svg width="239" height="73" viewBox="0 0 239 73" fill="none" xmlns="http://www.w3.org/2000/svg">
<path d="M85.156 4.104C86.212 4.104 87.316 4.2 88.468 4.392C89.62 4.56 90.52 4.788 91.168 5.076C91.384 5.148 91.516 5.244 91.564 5.364C91.636 5.46 91.696 5.64 91.744 5.904L92.176 10.908C92.176 10.98 92.116 11.028 91.996 11.052C91.876 11.076 91.804 11.04 91.78 10.944C90.964 9.048 89.872 7.584 88.504 6.552C87.136 5.52 85.552 5.004 83.752 5.004C81.376 5.004 79.54 5.88 78.244 7.632C76.948 9.384 76.3 11.736 76.3 14.688C76.3 16.896 76.648 18.912 77.344 20.736C78.064 22.56 79.06 24.012 80.332 25.092C81.628 26.148 83.092 26.676 84.724 26.676C86.26 26.676 87.628 26.172 88.828 25.164C90.052 24.132 91.144 22.572 92.104 20.484C92.128 20.388 92.2 20.352 92.32 20.376C92.464 20.4 92.536 20.448 92.536 20.52L91.996 25.416C91.948 25.704 91.888 25.896 91.816 25.992C91.768 26.064 91.636 26.148 91.42 26.244C89.284 27.036 87.088 27.432 84.832 27.432C81.904 27.432 79.456 26.856 77.488 25.704C75.52 24.528 74.068 23.052 73.132 21.276C72.22 19.476 71.764 17.604 71.764 15.66C71.764 13.38 72.376 11.364 73.6 9.612C74.848 7.86 76.492 6.504 78.532 5.544C80.596 4.584 82.804 4.104 85.156 4.104ZM98.334 27C98.262 27 98.226 26.928 98.226 26.784C98.226 26.64 98.262 26.568 98.334 26.568C98.91 26.568 99.33 26.508 99.594 26.388C99.882 26.268 100.074 26.04 100.17 25.704C100.266 25.344 100.314 24.804 100.314 24.084V16.092C100.314 15.252 100.242 14.676 100.098 14.364C99.978 14.052 99.726 13.896 99.342 13.896C98.55 13.896 97.89 14.196 97.362 14.796C96.834 15.372 96.33 16.356 95.85 17.748C95.826 17.82 95.742 17.856 95.598 17.856C95.478 17.856 95.418 17.82 95.418 17.748L95.382 12.42C95.382 12.3 95.454 12.24 95.598 12.24C95.742 12.24 95.814 12.3 95.814 12.42C95.814 12.732 96.246 12.936 97.11 13.032C97.998 13.104 99.666 13.14 102.114 13.14C104.37 13.14 105.93 13.104 106.794 13.032C107.682 12.936 108.126 12.732 108.126 12.42C108.126 12.3 108.198 12.24 108.342 12.24C108.486 12.24 108.558 12.3 108.558 12.42L108.522 17.748C108.522 17.82 108.45 17.856 108.306 17.856C108.186 17.856 108.114 17.82 108.09 17.748C107.634 16.356 107.13 15.372 106.578 14.796C106.05 14.196 105.402 13.896 104.634 13.896C104.25 13.896 103.986 14.052 103.842 14.364C103.722 14.676 103.662 15.252 103.662 16.092V24.084C103.662 24.804 103.71 25.344 103.806 25.704C103.902 26.04 104.082 26.268 104.346 26.388C104.634 26.508 105.054 26.568 105.606 26.568C105.678 26.568 105.714 26.64 105.714 26.784C105.714 26.928 105.678 27 105.606 27C104.934 27 104.418 26.988 104.058 26.964L102.042 26.928L99.954 26.964C99.57 26.988 99.03 27 98.334 27ZM121.343 27.216C121.247 27.264 121.127 27.288 120.983 27.288C120.503 27.288 120.059 26.988 119.651 26.388C119.243 25.764 119.039 24.948 119.039 23.94V17.82C119.039 16.284 118.907 15.168 118.643 14.472C118.403 13.776 117.983 13.428 117.383 13.428C116.111 13.428 115.391 14.412 115.223 16.38C115.151 17.1 114.935 17.616 114.575 17.928C114.239 18.24 113.759 18.396 113.135 18.396C112.535 18.396 112.091 18.276 111.803 18.036C111.539 17.772 111.407 17.436 111.407 17.028C111.407 16.308 111.827 15.624 112.667 14.976C113.507 14.304 114.515 13.764 115.691 13.356C116.891 12.948 117.947 12.744 118.859 12.744C119.915 12.744 120.767 13.08 121.415 13.752C122.087 14.4 122.423 15.396 122.423 16.74V23.112C122.423 23.808 122.543 24.348 122.783 24.732C123.047 25.116 123.407 25.308 123.863 25.308C124.199 25.308 124.547 25.224 124.907 25.056H124.943C125.039 25.056 125.099 25.116 125.123 25.236C125.171 25.332 125.147 25.404 125.051 25.452L121.343 27.216ZM114.431 27.252C113.399 27.252 112.619 27.024 112.091 26.568C111.563 26.112 111.299 25.476 111.299 24.66C111.299 24.012 111.455 23.496 111.767 23.112C112.079 22.704 112.463 22.392 112.919 22.176C113.399 21.936 114.059 21.672 114.899 21.384L115.799 21.06L119.399 19.728L119.543 20.268L117.491 21.204C117.419 21.228 117.179 21.324 116.771 21.492C116.363 21.636 116.003 21.888 115.691 22.248C115.403 22.608 115.259 23.028 115.259 23.508C115.259 24.084 115.439 24.54 115.799 24.876C116.183 25.188 116.615 25.344 117.095 25.344C117.479 25.344 117.875 25.212 118.283 24.948L120.083 23.724L120.119 24.3L117.599 26.1C117.047 26.508 116.531 26.808 116.051 27C115.571 27.168 115.031 27.252 114.431 27.252ZM125.617 27C125.497 27 125.437 26.928 125.437 26.784C125.437 26.64 125.497 26.568 125.617 26.568C126.049 26.568 126.505 26.268 126.985 25.668C127.489 25.044 128.101 23.904 128.821 22.248L132.997 12.564C133.045 12.468 133.117 12.42 133.213 12.42C133.309 12.42 133.381 12.468 133.429 12.564L137.893 22.068C138.517 23.436 138.997 24.42 139.333 25.02C139.669 25.596 140.005 26.004 140.341 26.244C140.677 26.46 141.121 26.568 141.673 26.568C141.793 26.568 141.853 26.64 141.853 26.784C141.853 26.928 141.793 27 141.673 27C141.241 27 140.569 26.976 139.657 26.928C138.697 26.88 138.001 26.856 137.569 26.856C137.185 26.856 136.561 26.88 135.697 26.928C134.881 26.976 134.305 27 133.969 27C133.873 27 133.825 26.928 133.825 26.784C133.825 26.64 133.873 26.568 133.969 26.568C134.497 26.568 134.881 26.508 135.121 26.388C135.361 26.244 135.481 26.04 135.481 25.776C135.481 25.584 135.409 25.332 135.265 25.02C135.145 24.684 135.001 24.336 134.833 23.976L131.593 17.1L133.177 14.328L129.649 22.572C129.217 23.58 129.001 24.396 129.001 25.02C129.001 26.052 129.577 26.568 130.729 26.568C130.849 26.568 130.909 26.64 130.909 26.784C130.909 26.928 130.849 27 130.729 27C130.465 27 130.093 26.976 129.613 26.928C129.133 26.88 128.677 26.856 128.245 26.856C127.741 26.856 127.249 26.88 126.769 26.928C126.337 26.976 125.953 27 125.617 27ZM148.533 24.084C148.533 24.948 148.677 25.572 148.965 25.956C149.253 26.34 149.793 26.532 150.585 26.532C151.545 26.532 152.253 26.28 152.709 25.776C153.165 25.248 153.393 24.42 153.393 23.292C153.393 20.796 152.313 19.548 150.153 19.548C149.169 19.548 148.197 19.788 147.237 20.268L147.021 19.584C148.245 19.032 149.721 18.756 151.449 18.756C155.145 18.756 156.993 20.004 156.993 22.5C156.993 23.868 156.465 24.972 155.409 25.812C154.377 26.652 153.021 27.072 151.341 27.072L149.397 27C148.245 26.952 147.417 26.928 146.913 26.928L144.825 26.964C144.441 26.988 143.901 27 143.205 27C143.133 27 143.097 26.928 143.097 26.784C143.097 26.64 143.133 26.568 143.205 26.568C143.781 26.568 144.201 26.508 144.465 26.388C144.753 26.268 144.945 26.04 145.041 25.704C145.137 25.344 145.185 24.804 145.185 24.084V16.02C145.185 15.3 145.137 14.772 145.041 14.436C144.945 14.076 144.753 13.836 144.465 13.716C144.201 13.596 143.793 13.536 143.241 13.536C143.169 13.536 143.133 13.464 143.133 13.32C143.133 13.176 143.169 13.104 143.241 13.104C143.913 13.104 144.429 13.116 144.789 13.14L146.913 13.176L149.145 13.14C149.577 13.116 150.165 13.104 150.909 13.104C150.957 13.104 150.981 13.176 150.981 13.32C150.981 13.464 150.957 13.536 150.909 13.536C150.213 13.536 149.697 13.608 149.361 13.752C149.049 13.896 148.833 14.148 148.713 14.508C148.593 14.844 148.533 15.372 148.533 16.092V24.084ZM162.85 19.62H172.534V20.484H162.85V19.62ZM161.23 16.02C161.23 15.3 161.182 14.772 161.086 14.436C160.99 14.076 160.798 13.836 160.51 13.716C160.246 13.596 159.838 13.536 159.286 13.536C159.214 13.536 159.178 13.464 159.178 13.32C159.178 13.176 159.214 13.104 159.286 13.104C159.958 13.104 160.474 13.116 160.834 13.14L162.958 13.176L164.974 13.14C165.358 13.116 165.874 13.104 166.522 13.104C166.57 13.104 166.594 13.176 166.594 13.32C166.594 13.464 166.57 13.536 166.522 13.536C165.97 13.536 165.55 13.608 165.262 13.752C164.998 13.896 164.818 14.148 164.722 14.508C164.626 14.844 164.578 15.372 164.578 16.092V24.084C164.578 24.804 164.626 25.344 164.722 25.704C164.818 26.04 164.998 26.268 165.262 26.388C165.526 26.508 165.946 26.568 166.522 26.568C166.57 26.568 166.594 26.64 166.594 26.784C166.594 26.928 166.57 27 166.522 27C165.85 27 165.334 26.988 164.974 26.964L162.958 26.928L160.87 26.964C160.486 26.988 159.946 27 159.25 27C159.178 27 159.142 26.928 159.142 26.784C159.142 26.64 159.178 26.568 159.25 26.568C159.826 26.568 160.246 26.508 160.51 26.388C160.798 26.268 160.99 26.04 161.086 25.704C161.182 25.344 161.23 24.804 161.23 24.084V16.02ZM170.914 16.02C170.914 15.3 170.866 14.772 170.77 14.436C170.674 14.076 170.482 13.836 170.194 13.716C169.93 13.596 169.522 13.536 168.97 13.536C168.898 13.536 168.862 13.464 168.862 13.32C168.862 13.176 168.898 13.104 168.97 13.104C169.642 13.104 170.158 13.116 170.518 13.14L172.642 13.176L174.658 13.14C175.042 13.116 175.558 13.104 176.206 13.104C176.254 13.104 176.278 13.176 176.278 13.32C176.278 13.464 176.254 13.536 176.206 13.536C175.654 13.536 175.234 13.608 174.946 13.752C174.682 13.896 174.502 14.148 174.406 14.508C174.31 14.844 174.262 15.372 174.262 16.092V24.084C174.262 24.804 174.31 25.344 174.406 25.704C174.502 26.04 174.682 26.268 174.946 26.388C175.21 26.508 175.63 26.568 176.206 26.568C176.254 26.568 176.278 26.64 176.278 26.784C176.278 26.928 176.254 27 176.206 27C175.534 27 175.018 26.988 174.658 26.964L172.642 26.928L170.518 26.964C170.134 26.988 169.606 27 168.934 27C168.862 27 168.826 26.928 168.826 26.784C168.826 26.64 168.862 26.568 168.934 26.568C169.51 26.568 169.93 26.508 170.194 26.388C170.482 26.268 170.674 26.04 170.77 25.704C170.866 25.344 170.914 24.804 170.914 24.084V16.02ZM189.247 27.216C189.151 27.264 189.031 27.288 188.887 27.288C188.407 27.288 187.963 26.988 187.555 26.388C187.147 25.764 186.943 24.948 186.943 23.94V17.82C186.943 16.284 186.811 15.168 186.547 14.472C186.307 13.776 185.887 13.428 185.287 13.428C184.015 13.428 183.295 14.412 183.127 16.38C183.055 17.1 182.839 17.616 182.479 17.928C182.143 18.24 181.663 18.396 181.039 18.396C180.439 18.396 179.995 18.276 179.707 18.036C179.443 17.772 179.311 17.436 179.311 17.028C179.311 16.308 179.731 15.624 180.571 14.976C181.411 14.304 182.419 13.764 183.595 13.356C184.795 12.948 185.851 12.744 186.763 12.744C187.819 12.744 188.671 13.08 189.319 13.752C189.991 14.4 190.327 15.396 190.327 16.74V23.112C190.327 23.808 190.447 24.348 190.687 24.732C190.951 25.116 191.311 25.308 191.767 25.308C192.103 25.308 192.451 25.224 192.811 25.056H192.847C192.943 25.056 193.003 25.116 193.027 25.236C193.075 25.332 193.051 25.404 192.955 25.452L189.247 27.216ZM182.335 27.252C181.303 27.252 180.523 27.024 179.995 26.568C179.467 26.112 179.203 25.476 179.203 24.66C179.203 24.012 179.359 23.496 179.671 23.112C179.983 22.704 180.367 22.392 180.823 22.176C181.303 21.936 181.963 21.672 182.803 21.384L183.703 21.06L187.303 19.728L187.447 20.268L185.395 21.204C185.323 21.228 185.083 21.324 184.675 21.492C184.267 21.636 183.907 21.888 183.595 22.248C183.307 22.608 183.163 23.028 183.163 23.508C183.163 24.084 183.343 24.54 183.703 24.876C184.087 25.188 184.519 25.344 184.999 25.344C185.383 25.344 185.779 25.212 186.187 24.948L187.987 23.724L188.023 24.3L185.503 26.1C184.951 26.508 184.435 26.808 183.955 27C183.475 27.168 182.935 27.252 182.335 27.252ZM207.752 26.568C207.824 26.568 207.86 26.64 207.86 26.784C207.86 26.928 207.824 27 207.752 27C207.2 27 206.768 26.988 206.456 26.964L204.656 26.928L202.676 26.964C202.364 26.988 201.908 27 201.308 27C201.26 27 201.236 26.928 201.236 26.784C201.236 26.64 201.26 26.568 201.308 26.568C201.788 26.568 202.124 26.508 202.316 26.388C202.532 26.268 202.664 26.04 202.712 25.704C202.784 25.368 202.82 24.828 202.82 24.084V20.484L204.08 20.556C203.024 20.556 202.136 20.796 201.416 21.276C200.72 21.732 200.024 22.668 199.328 24.084L198.86 25.128C198.548 25.824 198.296 26.316 198.104 26.604C197.912 26.868 197.648 27 197.312 27H193.1C193.052 27 193.028 26.928 193.028 26.784C193.028 26.64 193.052 26.568 193.1 26.568C193.772 26.592 194.3 26.364 194.684 25.884C195.092 25.38 195.416 24.876 195.656 24.372C195.896 23.868 196.052 23.532 196.124 23.364C196.676 22.332 197.408 21.6 198.32 21.168C199.232 20.736 200.444 20.52 201.956 20.52L202.208 20.628C197.816 20.628 195.62 19.38 195.62 16.884C195.62 15.636 196.148 14.676 197.204 14.004C198.26 13.332 199.58 12.996 201.164 12.996C201.788 12.996 202.4 13.032 203 13.104C203.768 13.152 204.32 13.176 204.656 13.176L206.42 13.14C206.732 13.116 207.164 13.104 207.716 13.104C207.788 13.104 207.824 13.176 207.824 13.32C207.824 13.464 207.788 13.536 207.716 13.536C207.284 13.536 206.96 13.608 206.744 13.752C206.552 13.872 206.408 14.1 206.312 14.436C206.24 14.772 206.204 15.3 206.204 16.02V24.084C206.204 25.116 206.3 25.788 206.492 26.1C206.708 26.412 207.128 26.568 207.752 26.568ZM199.112 16.092C199.112 17.244 199.364 18.204 199.868 18.972C200.396 19.74 201.14 20.124 202.1 20.124C202.94 20.124 203.636 20.064 204.188 19.944L202.82 20.34V16.092C202.82 15.012 202.724 14.304 202.532 13.968C202.34 13.608 201.944 13.428 201.344 13.428C200.576 13.428 200.012 13.656 199.652 14.112C199.292 14.544 199.112 15.204 199.112 16.092ZM221.367 27.288C221.247 27.288 221.127 27.264 221.007 27.216C220.887 27.192 220.827 27.168 220.827 27.144V16.02C220.827 15.3 220.779 14.772 220.683 14.436C220.587 14.076 220.407 13.836 220.143 13.716C219.879 13.596 219.459 13.536 218.883 13.536C218.835 13.536 218.811 13.464 218.811 13.32C218.811 13.176 218.835 13.104 218.883 13.104C219.435 13.104 219.855 13.116 220.143 13.14L222.447 13.176L225.363 13.14C225.579 13.116 225.843 13.104 226.155 13.104C226.227 13.104 226.263 13.176 226.263 13.32C226.263 13.464 226.227 13.536 226.155 13.536C225.579 13.536 225.147 13.596 224.859 13.716C224.595 13.836 224.415 14.076 224.319 14.436C224.223 14.772 224.175 15.3 224.175 16.02V24.012L222.699 25.02L232.959 12.996C233.031 12.876 233.187 12.816 233.427 12.816C233.571 12.816 233.691 12.84 233.787 12.888C233.907 12.912 233.967 12.948 233.967 12.996V24.084C233.967 24.804 234.015 25.344 234.111 25.704C234.207 26.04 234.387 26.268 234.651 26.388C234.915 26.508 235.335 26.568 235.911 26.568C235.959 26.568 235.983 26.64 235.983 26.784C235.983 26.928 235.959 27 235.911 27C235.215 27 234.675 26.988 234.291 26.964L232.311 26.928L230.187 26.964C229.803 26.988 229.275 27 228.603 27C228.555 27 228.531 26.928 228.531 26.784C228.531 26.64 228.555 26.568 228.603 26.568C229.179 26.568 229.599 26.508 229.863 26.388C230.151 26.268 230.343 26.04 230.439 25.704C230.535 25.344 230.583 24.804 230.583 24.084V15.876L232.275 14.904L221.835 27.144C221.763 27.24 221.607 27.288 221.367 27.288ZM95.884 58.568C95.956 58.568 95.992 58.64 95.992 58.784C95.992 58.928 95.956 59 95.884 59C95.068 59 94.42 58.988 93.94 58.964L91.312 58.928L88.324 58.964C87.82 58.988 87.148 59 86.308 59C86.236 59 86.2 58.928 86.2 58.784C86.2 58.64 86.236 58.568 86.308 58.568C87.124 58.568 87.724 58.508 88.108 58.388C88.492 58.268 88.744 58.04 88.864 57.704C89.008 57.344 89.08 56.804 89.08 56.084V39.848C89.08 39.032 89.044 38.492 88.972 38.228C88.924 37.964 88.792 37.796 88.576 37.724C88.36 37.652 87.928 37.616 87.28 37.616H79.9C79.18 37.616 78.7 37.652 78.46 37.724C78.22 37.796 78.064 37.964 77.992 38.228C77.944 38.492 77.92 39.032 77.92 39.848V56.084C77.92 56.828 77.98 57.368 78.1 57.704C78.244 58.04 78.496 58.268 78.856 58.388C79.24 58.508 79.852 58.568 80.692 58.568C80.764 58.568 80.8 58.64 80.8 58.784C80.8 58.928 80.764 59 80.692 59C79.852 59 79.18 58.988 78.676 58.964L75.688 58.928L73.024 58.964C72.544 58.988 71.896 59 71.08 59C71.032 59 71.008 58.928 71.008 58.784C71.008 58.64 71.032 58.568 71.08 58.568C71.92 58.568 72.532 58.508 72.916 58.388C73.3 58.268 73.564 58.04 73.708 57.704C73.852 57.344 73.924 56.804 73.924 56.084V39.848C73.924 38.768 73.744 38.012 73.384 37.58C73.024 37.148 72.28 36.932 71.152 36.932C71.08 36.932 71.044 36.86 71.044 36.716C71.044 36.572 71.08 36.5 71.152 36.5C71.968 36.5 72.76 36.512 73.528 36.536C76.744 36.584 80.116 36.608 83.644 36.608C86.836 36.608 90.52 36.572 94.696 36.5H95.884C95.956 36.5 95.992 36.572 95.992 36.716C95.992 36.86 95.956 36.932 95.884 36.932C94.756 36.932 94 37.148 93.616 37.58C93.256 38.012 93.076 38.768 93.076 39.848V56.084C93.076 56.804 93.148 57.344 93.292 57.704C93.436 58.04 93.7 58.268 94.084 58.388C94.468 58.508 95.068 58.568 95.884 58.568ZM108.919 59.216C108.823 59.264 108.703 59.288 108.559 59.288C108.079 59.288 107.635 58.988 107.227 58.388C106.819 57.764 106.615 56.948 106.615 55.94V49.82C106.615 48.284 106.483 47.168 106.219 46.472C105.979 45.776 105.559 45.428 104.959 45.428C103.687 45.428 102.967 46.412 102.799 48.38C102.727 49.1 102.511 49.616 102.151 49.928C101.815 50.24 101.335 50.396 100.711 50.396C100.111 50.396 99.6672 50.276 99.3792 50.036C99.1152 49.772 98.9832 49.436 98.9832 49.028C98.9832 48.308 99.4032 47.624 100.243 46.976C101.083 46.304 102.091 45.764 103.267 45.356C104.467 44.948 105.523 44.744 106.435 44.744C107.491 44.744 108.343 45.08 108.991 45.752C109.663 46.4 109.999 47.396 109.999 48.74V55.112C109.999 55.808 110.119 56.348 110.359 56.732C110.623 57.116 110.983 57.308 111.439 57.308C111.775 57.308 112.123 57.224 112.483 57.056H112.519C112.615 57.056 112.675 57.116 112.699 57.236C112.747 57.332 112.723 57.404 112.627 57.452L108.919 59.216ZM102.007 59.252C100.975 59.252 100.195 59.024 99.6672 58.568C99.1392 58.112 98.8752 57.476 98.8752 56.66C98.8752 56.012 99.0312 55.496 99.3432 55.112C99.6552 54.704 100.039 54.392 100.495 54.176C100.975 53.936 101.635 53.672 102.475 53.384L103.375 53.06L106.975 51.728L107.119 52.268L105.067 53.204C104.995 53.228 104.755 53.324 104.347 53.492C103.939 53.636 103.579 53.888 103.267 54.248C102.979 54.608 102.835 55.028 102.835 55.508C102.835 56.084 103.015 56.54 103.375 56.876C103.759 57.188 104.191 57.344 104.671 57.344C105.055 57.344 105.451 57.212 105.859 56.948L107.659 55.724L107.695 56.3L105.175 58.1C104.623 58.508 104.107 58.808 103.627 59C103.147 59.168 102.607 59.252 102.007 59.252ZM113.671 68.9C113.599 68.9 113.563 68.828 113.563 68.684C113.563 68.54 113.599 68.468 113.671 68.468C114.247 68.468 114.667 68.396 114.931 68.252C115.219 68.132 115.411 67.892 115.507 67.532C115.627 67.196 115.687 66.68 115.687 65.984V48.02C115.687 47.012 115.507 46.352 115.147 46.04C114.811 45.704 114.199 45.536 113.311 45.536C113.263 45.536 113.239 45.464 113.239 45.32C113.239 45.176 113.263 45.104 113.311 45.104H118.243C118.579 45.104 118.795 45.164 118.891 45.284C118.987 45.404 119.035 45.62 119.035 45.932V65.984C119.035 66.704 119.107 67.232 119.251 67.568C119.419 67.904 119.719 68.132 120.151 68.252C120.607 68.396 121.303 68.468 122.239 68.468C122.311 68.468 122.347 68.54 122.347 68.684C122.347 68.828 122.311 68.9 122.239 68.9C121.351 68.9 120.655 68.888 120.151 68.864L117.307 68.828L115.183 68.864C114.823 68.888 114.319 68.9 113.671 68.9ZM122.131 59.468C121.267 59.468 120.511 59.396 119.863 59.252C119.215 59.132 118.387 58.904 117.379 58.568L118.639 56.3C119.239 57.044 119.839 57.608 120.439 57.992C121.063 58.376 121.855 58.568 122.815 58.568C125.239 58.568 126.451 56.504 126.451 52.376C126.451 50.552 126.019 49.148 125.156 48.164C124.315 47.156 123.259 46.652 121.987 46.652C121.147 46.652 120.415 46.856 119.791 47.264C119.167 47.648 118.495 48.248 117.775 49.064L117.415 48.632C118.639 47.24 119.803 46.232 120.907 45.608C122.035 44.96 123.187 44.636 124.363 44.636C125.371 44.636 126.307 44.9 127.172 45.428C128.06 45.956 128.767 46.724 129.295 47.732C129.823 48.74 130.088 49.916 130.088 51.26C130.088 53.18 129.692 54.764 128.9 56.012C128.107 57.236 127.099 58.124 125.875 58.676C124.676 59.204 123.428 59.468 122.131 59.468ZM135.45 59C135.378 59 135.342 58.928 135.342 58.784C135.342 58.64 135.378 58.568 135.45 58.568C136.026 58.568 136.446 58.508 136.71 58.388C136.998 58.268 137.19 58.04 137.286 57.704C137.382 57.344 137.43 56.804 137.43 56.084V48.092C137.43 47.252 137.358 46.676 137.214 46.364C137.094 46.052 136.842 45.896 136.458 45.896C135.666 45.896 135.006 46.196 134.478 46.796C133.95 47.372 133.446 48.356 132.966 49.748C132.942 49.82 132.858 49.856 132.714 49.856C132.594 49.856 132.534 49.82 132.534 49.748L132.498 44.42C132.498 44.3 132.57 44.24 132.714 44.24C132.858 44.24 132.93 44.3 132.93 44.42C132.93 44.732 133.362 44.936 134.226 45.032C135.114 45.104 136.782 45.14 139.23 45.14C141.486 45.14 143.046 45.104 143.91 45.032C144.798 44.936 145.242 44.732 145.242 44.42C145.242 44.3 145.314 44.24 145.458 44.24C145.602 44.24 145.674 44.3 145.674 44.42L145.638 49.748C145.638 49.82 145.566 49.856 145.422 49.856C145.302 49.856 145.23 49.82 145.206 49.748C144.75 48.356 144.246 47.372 143.694 46.796C143.166 46.196 142.518 45.896 141.75 45.896C141.366 45.896 141.102 46.052 140.958 46.364C140.838 46.676 140.778 47.252 140.778 48.092V56.084C140.778 56.804 140.826 57.344 140.922 57.704C141.018 58.04 141.198 58.268 141.462 58.388C141.75 58.508 142.17 58.568 142.722 58.568C142.794 58.568 142.83 58.64 142.83 58.784C142.83 58.928 142.794 59 142.722 59C142.05 59 141.534 58.988 141.174 58.964L139.158 58.928L137.07 58.964C136.686 58.988 136.146 59 135.45 59ZM151.727 51.62H161.411V52.484H151.727V51.62ZM150.107 48.02C150.107 47.3 150.059 46.772 149.963 46.436C149.867 46.076 149.675 45.836 149.387 45.716C149.123 45.596 148.715 45.536 148.163 45.536C148.091 45.536 148.055 45.464 148.055 45.32C148.055 45.176 148.091 45.104 148.163 45.104C148.835 45.104 149.351 45.116 149.711 45.14L151.835 45.176L153.851 45.14C154.235 45.116 154.751 45.104 155.399 45.104C155.447 45.104 155.471 45.176 155.471 45.32C155.471 45.464 155.447 45.536 155.399 45.536C154.847 45.536 154.427 45.608 154.139 45.752C153.875 45.896 153.695 46.148 153.599 46.508C153.503 46.844 153.455 47.372 153.455 48.092V56.084C153.455 56.804 153.503 57.344 153.599 57.704C153.695 58.04 153.875 58.268 154.139 58.388C154.403 58.508 154.823 58.568 155.399 58.568C155.447 58.568 155.471 58.64 155.471 58.784C155.471 58.928 155.447 59 155.399 59C154.727 59 154.211 58.988 153.851 58.964L151.835 58.928L149.747 58.964C149.363 58.988 148.823 59 148.127 59C148.055 59 148.019 58.928 148.019 58.784C148.019 58.64 148.055 58.568 148.127 58.568C148.703 58.568 149.123 58.508 149.387 58.388C149.675 58.268 149.867 58.04 149.963 57.704C150.059 57.344 150.107 56.804 150.107 56.084V48.02ZM159.791 48.02C159.791 47.3 159.743 46.772 159.647 46.436C159.551 46.076 159.359 45.836 159.071 45.716C158.807 45.596 158.399 45.536 157.847 45.536C157.775 45.536 157.739 45.464 157.739 45.32C157.739 45.176 157.775 45.104 157.847 45.104C158.519 45.104 159.035 45.116 159.395 45.14L161.519 45.176L163.535 45.14C163.919 45.116 164.435 45.104 165.083 45.104C165.131 45.104 165.155 45.176 165.155 45.32C165.155 45.464 165.131 45.536 165.083 45.536C164.531 45.536 164.111 45.608 163.823 45.752C163.559 45.896 163.379 46.148 163.283 46.508C163.187 46.844 163.139 47.372 163.139 48.092V56.084C163.139 56.804 163.187 57.344 163.283 57.704C163.379 58.04 163.559 58.268 163.823 58.388C164.087 58.508 164.507 58.568 165.083 58.568C165.131 58.568 165.155 58.64 165.155 58.784C165.155 58.928 165.131 59 165.083 59C164.411 59 163.895 58.988 163.535 58.964L161.519 58.928L159.395 58.964C159.011 58.988 158.483 59 157.811 59C157.739 59 157.703 58.928 157.703 58.784C157.703 58.64 157.739 58.568 157.811 58.568C158.387 58.568 158.807 58.508 159.071 58.388C159.359 58.268 159.551 58.04 159.647 57.704C159.743 57.344 159.791 56.804 159.791 56.084V48.02ZM175.101 59.432C173.589 59.432 172.281 59.12 171.177 58.496C170.073 57.848 169.233 56.996 168.657 55.94C168.081 54.86 167.793 53.696 167.793 52.448C167.793 51.056 168.141 49.772 168.837 48.596C169.533 47.42 170.493 46.496 171.717 45.824C172.965 45.128 174.369 44.78 175.929 44.78C177.417 44.78 178.569 45.116 179.385 45.788C180.201 46.46 180.609 47.504 180.609 48.92C180.609 49.664 180.477 50.036 180.213 50.036H176.757C176.805 48.572 176.661 47.456 176.325 46.688C175.989 45.896 175.401 45.5 174.561 45.5C173.601 45.5 172.833 45.992 172.257 46.976C171.705 47.96 171.429 49.268 171.429 50.9C171.429 53.012 171.909 54.668 172.869 55.868C173.853 57.068 175.257 57.668 177.081 57.668C177.729 57.668 178.281 57.596 178.737 57.452C179.193 57.284 179.793 57.02 180.537 56.66L180.609 56.624C180.657 56.624 180.705 56.672 180.753 56.768C180.825 56.864 180.837 56.936 180.789 56.984C179.901 57.848 179.001 58.472 178.089 58.856C177.177 59.24 176.181 59.432 175.101 59.432ZM170.133 49.388L178.017 49.244V50.036L170.169 50.072L170.133 49.388ZM172.005 42.296C171.381 42.296 170.889 42.128 170.529 41.792C170.193 41.432 170.025 40.94 170.025 40.316C170.025 39.74 170.205 39.284 170.565 38.948C170.925 38.612 171.405 38.444 172.005 38.444C172.605 38.444 173.061 38.612 173.373 38.948C173.709 39.284 173.877 39.74 173.877 40.316C173.877 40.94 173.709 41.432 173.373 41.792C173.061 42.128 172.605 42.296 172.005 42.296ZM178.269 42.296C177.645 42.296 177.165 42.128 176.829 41.792C176.493 41.432 176.325 40.94 176.325 40.316C176.325 39.74 176.493 39.296 176.829 38.984C177.189 38.648 177.669 38.48 178.269 38.48C178.869 38.48 179.325 38.648 179.637 38.984C179.973 39.296 180.141 39.74 180.141 40.316C180.141 40.94 179.973 41.432 179.637 41.792C179.325 42.128 178.869 42.296 178.269 42.296ZM182.772 68.9C182.7 68.9 182.664 68.828 182.664 68.684C182.664 68.54 182.7 68.468 182.772 68.468C183.348 68.468 183.768 68.396 184.032 68.252C184.32 68.132 184.512 67.892 184.608 67.532C184.728 67.196 184.788 66.68 184.788 65.984V48.02C184.788 47.012 184.608 46.352 184.248 46.04C183.912 45.704 183.3 45.536 182.412 45.536C182.364 45.536 182.34 45.464 182.34 45.32C182.34 45.176 182.364 45.104 182.412 45.104H187.344C187.68 45.104 187.896 45.164 187.992 45.284C188.088 45.404 188.136 45.62 188.136 45.932V65.984C188.136 66.704 188.208 67.232 188.352 67.568C188.52 67.904 188.82 68.132 189.252 68.252C189.708 68.396 190.404 68.468 191.34 68.468C191.412 68.468 191.448 68.54 191.448 68.684C191.448 68.828 191.412 68.9 191.34 68.9C190.452 68.9 189.756 68.888 189.252 68.864L186.408 68.828L184.284 68.864C183.924 68.888 183.42 68.9 182.772 68.9ZM191.232 59.468C190.368 59.468 189.612 59.396 188.964 59.252C188.316 59.132 187.488 58.904 186.48 58.568L187.74 56.3C188.34 57.044 188.94 57.608 189.54 57.992C190.164 58.376 190.956 58.568 191.916 58.568C194.34 58.568 195.552 56.504 195.552 52.376C195.552 50.552 195.12 49.148 194.256 48.164C193.416 47.156 192.36 46.652 191.088 46.652C190.248 46.652 189.516 46.856 188.892 47.264C188.268 47.648 187.596 48.248 186.876 49.064L186.516 48.632C187.74 47.24 188.904 46.232 190.008 45.608C191.136 44.96 192.288 44.636 193.464 44.636C194.472 44.636 195.408 44.9 196.272 45.428C197.16 45.956 197.868 46.724 198.396 47.732C198.924 48.74 199.188 49.916 199.188 51.26C199.188 53.18 198.792 54.764 198 56.012C197.208 57.236 196.2 58.124 194.976 58.676C193.776 59.204 192.528 59.468 191.232 59.468ZM217.006 59C216.934 59 216.898 58.928 216.898 58.784C216.898 58.64 216.934 58.568 217.006 58.568C217.582 58.568 218.002 58.508 218.266 58.388C218.554 58.268 218.746 58.04 218.842 57.704C218.938 57.344 218.986 56.804 218.986 56.084V48.02C218.986 47.3 218.938 46.772 218.842 46.436C218.746 46.076 218.554 45.836 218.266 45.716C218.002 45.596 217.594 45.536 217.042 45.536C216.97 45.536 216.934 45.464 216.934 45.32C216.934 45.176 216.97 45.104 217.042 45.104C217.714 45.104 218.23 45.116 218.59 45.14L220.714 45.176L222.73 45.14C223.114 45.116 223.63 45.104 224.278 45.104C224.326 45.104 224.35 45.176 224.35 45.32C224.35 45.464 224.326 45.536 224.278 45.536C223.726 45.536 223.306 45.608 223.018 45.752C222.754 45.896 222.574 46.148 222.478 46.508C222.382 46.844 222.334 47.372 222.334 48.092V56.084C222.334 56.804 222.382 57.344 222.478 57.704C222.574 58.04 222.754 58.268 223.018 58.388C223.282 58.508 223.702 58.568 224.278 58.568C224.326 58.568 224.35 58.64 224.35 58.784C224.35 58.928 224.326 59 224.278 59C223.606 59 223.09 58.988 222.73 58.964L220.714 58.928L218.626 58.964C218.242 58.988 217.702 59 217.006 59ZM207.178 56.084C207.178 56.948 207.322 57.572 207.61 57.956C207.898 58.34 208.438 58.532 209.23 58.532C210.19 58.532 210.898 58.28 211.354 57.776C211.81 57.248 212.038 56.42 212.038 55.292C212.038 52.796 210.958 51.548 208.798 51.548C207.814 51.548 206.842 51.788 205.882 52.268L205.666 51.584C206.89 51.032 208.366 50.756 210.094 50.756C213.79 50.756 215.638 52.004 215.638 54.5C215.638 55.868 215.11 56.972 214.054 57.812C213.022 58.652 211.666 59.072 209.986 59.072L208.042 59C206.89 58.952 206.062 58.928 205.558 58.928L203.47 58.964C203.086 58.988 202.546 59 201.85 59C201.778 59 201.742 58.928 201.742 58.784C201.742 58.64 201.778 58.568 201.85 58.568C202.426 58.568 202.846 58.508 203.11 58.388C203.398 58.268 203.59 58.04 203.686 57.704C203.782 57.344 203.83 56.804 203.83 56.084V48.02C203.83 47.3 203.782 46.772 203.686 46.436C203.59 46.076 203.398 45.836 203.11 45.716C202.846 45.596 202.438 45.536 201.886 45.536C201.814 45.536 201.778 45.464 201.778 45.32C201.778 45.176 201.814 45.104 201.886 45.104C202.558 45.104 203.074 45.116 203.434 45.14L205.558 45.176L207.79 45.14C208.222 45.116 208.81 45.104 209.554 45.104C209.602 45.104 209.626 45.176 209.626 45.32C209.626 45.464 209.602 45.536 209.554 45.536C208.858 45.536 208.342 45.608 208.006 45.752C207.694 45.896 207.478 46.148 207.358 46.508C207.238 46.844 207.178 47.372 207.178 48.092V56.084Z" fill="#B8B099"/>
<g clip-path="url(#clip0_22604_2)">
<path d="M22.9904 24.1984C23.1599 24.167 23.1599 24.167 23.367 24.1984C23.6243 24.5251 23.7624 24.8645 23.8817 25.2603C23.9005 25.3232 23.9193 25.3797 23.9382 25.4425C24.321 26.7181 24.6034 28.0251 24.8733 29.3259C24.8733 29.2756 24.8671 29.2316 24.8671 29.1813C24.8168 28.1634 24.7917 27.1391 24.7917 26.1212C24.7917 25.9704 24.7917 25.9704 24.7917 25.8196C24.7917 25.7253 24.7917 25.6373 24.7917 25.5431C24.7917 25.4614 24.7917 25.3797 24.7917 25.298C24.8043 25.1032 24.8043 25.1032 24.8796 24.9524C25.2436 24.9901 25.4633 25.1598 25.7395 25.386C25.8085 25.4425 25.8085 25.4425 25.8776 25.4991C26.3608 25.895 26.8316 26.3034 27.3023 26.7181C27.5282 26.9192 27.7605 27.114 27.9927 27.3151C28.294 27.5727 28.5952 27.8366 28.8902 28.1005C29.204 28.3833 29.5304 28.6535 29.8568 28.9174C30.1141 29.1248 30.3652 29.3447 30.6162 29.5583C31.0367 29.9165 31.4573 30.2684 31.8903 30.6077C31.9657 30.6706 32.041 30.7271 32.1226 30.7899C32.3485 30.9659 32.5682 31.1418 32.7941 31.3178C32.951 31.4434 33.108 31.5691 33.2711 31.6885C34.0243 32.2855 34.7963 32.851 35.5871 33.3914C35.6373 33.4228 35.6876 33.4605 35.7378 33.4919C36.2273 33.8312 36.7232 34.1517 37.2441 34.4345C38.3864 35.0754 39.4095 35.9488 40.3509 36.8537C41.3991 37.8653 41.3991 37.8654 42.7485 38.2926C42.918 38.2864 43.0937 38.2864 43.2632 38.2801C44.6251 38.2675 45.598 39.3169 46.5206 40.1966C46.6901 40.3537 46.8595 40.4982 47.0478 40.6364C47.0227 41.1266 46.8344 41.4282 46.5645 41.8366C46.4829 41.9623 46.4014 42.088 46.3198 42.2199C46.2758 42.2828 46.2382 42.3456 46.1942 42.4147C45.0959 44.1239 44.2674 45.877 44.7193 47.9569C45.2465 50.0682 46.5771 51.8654 47.8386 53.5934C48.2278 54.1275 48.5918 54.6741 48.9558 55.2271C49.0061 55.3025 49.05 55.3779 49.1065 55.4533C49.6211 56.2513 49.6211 56.2513 49.6211 56.553C49.2508 56.5215 49.0939 56.3582 48.8366 56.0943C48.7989 56.0566 48.7613 56.0189 48.7236 55.9811C48.4349 55.6795 48.1525 55.3653 47.8826 55.0449C47.7382 54.8752 47.5939 54.6993 47.4432 54.5296C47.4056 54.4856 47.3679 54.4354 47.324 54.3914C47.0855 54.1086 46.8344 53.8321 46.5834 53.5557C46.2821 53.2226 45.9997 52.8833 45.7172 52.5314C45.4787 52.2424 45.2214 51.9659 44.9703 51.6894C44.7695 51.4695 44.5686 51.2433 44.3741 51.0171C44.2674 50.8977 44.1544 50.7783 44.0352 50.6652C43.6335 51.0925 43.238 51.526 42.874 51.9785C42.623 52.2926 42.3531 52.5943 42.0769 52.8896C41.738 53.2478 41.4242 53.6185 41.1166 54.0081C40.8781 54.2971 40.6271 54.5736 40.3697 54.8501C40.2128 55.0197 40.0622 55.1894 39.9116 55.3653C39.8488 55.4345 39.8488 55.4345 39.786 55.5099C39.7044 55.6041 39.6228 55.7047 39.5475 55.8052C39.2588 56.1697 39.2588 56.1697 38.9952 56.2136C38.945 56.2011 38.8885 56.1948 38.8383 56.1822C38.8822 55.8932 38.9638 55.6921 39.1207 55.447C39.1835 55.3465 39.1835 55.3465 39.2525 55.2397C39.2965 55.1706 39.3467 55.0952 39.3906 55.026C39.4408 54.9506 39.4848 54.8752 39.535 54.7998C39.8362 54.3285 40.1501 53.8698 40.4702 53.4111C42.6355 50.3636 42.6355 50.3636 43.3824 46.7756C43.3824 46.6625 43.3824 46.6625 43.3887 46.5494C43.395 46.3169 43.395 46.0781 43.4012 45.8456C43.4075 45.6822 43.4075 45.5251 43.4138 45.3618C43.4201 44.9722 43.4326 44.5763 43.4389 44.1867C43.3761 44.1679 43.3761 44.1679 43.3134 44.149C42.9054 44.0171 42.51 43.8662 42.1146 43.7092C42.0581 43.684 41.9953 43.6589 41.9326 43.6338C41.7443 43.5583 41.5497 43.4767 41.3614 43.4013C41.261 43.3636 41.261 43.3636 41.1606 43.3196C40.0999 42.8797 39.0454 42.4273 38.0098 41.9309C37.9282 41.8932 37.9282 41.8932 37.8529 41.8555C37.5014 41.6858 37.1562 41.5099 36.8048 41.3276C36.7294 41.2899 36.6604 41.2522 36.5851 41.2145C35.2357 40.5108 33.9866 39.7442 32.769 38.8393C31.7334 38.0727 30.6351 37.4192 29.5053 36.7908C28.4007 36.175 27.3713 35.4336 26.4801 34.535C26.342 34.6732 26.3608 34.8995 26.3357 35.088C26.3295 35.1382 26.3232 35.1885 26.3169 35.2388C26.3043 35.3456 26.2918 35.4587 26.273 35.5655C26.2479 35.7415 26.229 35.9174 26.2039 36.0934C26.1725 36.3447 26.1412 36.596 26.1098 36.8537C25.2499 43.5583 24.1453 50.2505 15.032 68.0521C14.875 68.2092 14.7119 68.3725 14.5549 68.5359C14.4545 68.6364 14.3478 68.737 14.2474 68.8438C14.1972 68.8941 14.1533 68.9381 14.103 68.9883C14.0591 69.0323 14.0152 69.0763 13.9712 69.1203C13.9336 69.158 13.8959 69.1957 13.852 69.2397C13.739 69.3214 13.739 69.3214 13.5131 69.3214C13.5444 68.8627 13.7578 68.5548 13.9963 68.1777C14.0779 68.0458 14.1595 67.9075 14.2411 67.7756C14.2851 67.7065 14.3227 67.6373 14.3667 67.5682C14.9315 66.6445 15.4587 65.702 15.9232 64.7217C15.9609 64.64 15.9985 64.5583 16.0425 64.4704C16.35 63.8169 16.6387 63.1508 16.9149 62.4785C16.9337 62.4282 16.9588 62.3779 16.9776 62.3277C17.4923 61.0521 17.963 59.7576 18.4149 58.4569C18.4338 58.4066 18.4526 58.3564 18.4714 58.2998C19.5196 55.6041 19.5196 55.6041 19.9966 52.7953C19.5761 53.2101 19.1744 53.6311 18.7915 54.0772C18.3898 54.5422 17.9881 54.9758 17.5111 55.3591C17.4421 55.4156 17.373 55.4722 17.304 55.5287C16.1994 56.4147 15.0068 57.0996 13.6637 57.5583C13.5821 57.5835 13.5821 57.5835 13.4942 57.6149C12.7348 57.8663 12.0256 57.9479 11.2285 57.9417C11.1406 57.9417 11.059 57.9416 10.9649 57.9479C9.73468 57.9479 8.68652 57.5709 7.789 56.7163C6.91658 55.7235 6.68436 54.4354 6.74084 53.1472C6.86637 51.3815 7.51911 49.9363 8.39153 48.4156C8.49196 48.4156 8.59238 48.4156 8.6928 48.4156C8.69908 48.491 8.70535 48.5664 8.71163 48.6418C8.73046 48.9246 8.75556 49.2074 8.77439 49.4901C8.78695 49.6095 8.79322 49.7352 8.7995 49.8546C8.87482 50.9354 9.00034 52.123 9.81 52.9273C9.96063 53.0467 10.1113 53.1472 10.2745 53.2415C10.3309 53.2729 10.3811 53.3043 10.4376 53.3357C11.241 53.7253 12.195 53.6122 13.0172 53.3483C16.3625 52.0413 18.2706 49.2388 19.689 46.0781C20.9945 43.0934 22.4758 39.3294 22.4758 36.0431C22.4506 36.0996 22.4193 36.1625 22.3942 36.2253C21.8481 37.4066 21.2958 38.544 20.5175 39.5934C20.461 39.6688 20.4045 39.7379 20.3481 39.8196C19.689 40.6679 18.9547 41.4659 18.1011 42.1194C18.0446 42.1634 17.9881 42.2011 17.9316 42.2451C16.2872 43.4704 14.442 44.1741 12.377 43.9668C11.8561 43.86 11.3791 43.6715 11.0716 43.219C10.6322 42.4901 10.6197 41.7612 10.6197 40.9255C10.6197 40.8312 10.6197 40.737 10.6134 40.6427C10.6134 39.9452 10.6322 39.2478 11.0904 38.6948C11.3352 38.7011 11.3352 38.7011 11.6176 38.7702C11.9189 39.1472 12.0193 39.5934 12.1448 40.0521C12.2201 40.272 12.308 40.4039 12.4461 40.5799C12.4461 40.6302 12.4461 40.6804 12.4461 40.7307C12.5026 40.7496 12.5528 40.7747 12.6093 40.7998C12.7411 40.8501 12.8666 40.9066 12.9984 40.9632C13.9336 41.2962 15.101 40.8501 15.9609 40.4605C16.5571 40.1715 17.0655 39.807 17.5676 39.3734C17.6053 39.3357 17.6492 39.3043 17.6931 39.2666C21.415 36.0871 22.0803 30.281 22.6829 25.6876C22.6954 25.6122 22.7017 25.5368 22.7143 25.4551C22.7331 25.3106 22.7519 25.1661 22.7707 25.0215C22.777 24.9587 22.7896 24.8959 22.7958 24.8267C22.8021 24.7702 22.8084 24.7136 22.8147 24.6571C22.8398 24.4811 22.9025 24.3492 22.9904 24.1984ZM26.9069 27.3653C26.8567 27.9434 26.8065 28.5215 26.7562 29.0996C26.7311 29.3698 26.7123 29.64 26.6872 29.9039C26.6621 30.1616 26.6433 30.4255 26.6182 30.6831C26.6056 30.8276 26.5931 30.9722 26.5805 31.123C26.4675 32.4111 26.4675 32.4111 26.7876 33.6427C27.2709 34.1706 27.8986 34.4785 28.5513 34.7487C28.6266 34.7801 28.7019 34.8115 28.7772 34.8429C29.1978 35.0251 29.6246 35.1948 30.0514 35.3582C31.5138 35.9237 32.8506 36.728 34.0369 37.7585C34.6896 38.3178 35.4365 38.7513 36.1708 39.2038C36.2399 39.2478 36.3152 39.2917 36.3905 39.3357C38.4366 40.5736 40.5894 41.6104 42.7297 42.6723C42.8928 42.5215 43.0058 42.3833 43.1062 42.1822C43.1314 42.132 43.1565 42.0817 43.1816 42.0314C43.2067 41.9811 43.2318 41.9309 43.2632 41.8743C43.5393 41.3339 43.5393 41.3339 43.7088 41.1643C43.872 41.1203 43.872 41.1203 44.01 41.0889C44.0352 41.2648 44.0603 41.4345 44.0854 41.6167C44.1607 41.6167 44.236 41.6167 44.3113 41.6167C44.7004 41.2083 44.8762 40.8627 44.8636 40.2846C44.826 39.9955 44.7067 39.7442 44.5373 39.5054C44.2485 39.3106 44.1293 39.3106 43.7841 39.3546C43.4577 39.5305 43.169 39.7567 42.874 39.9892C42.5916 40.1463 42.3594 40.184 42.0518 40.1086C41.0162 39.6122 40.1814 38.544 39.3906 37.7397C38.8195 37.1616 38.2483 36.6149 37.6081 36.1122C37.5454 36.0557 37.4763 36.0054 37.4073 35.9488C37.2127 35.798 37.0433 35.7352 36.8048 35.6598C34.8967 34.956 33.1582 33.3662 31.5953 32.0969C31.4824 32.0027 31.3694 31.9147 31.2501 31.8205C30.4279 31.1732 29.6308 30.482 28.8651 29.772C28.7961 29.7092 28.727 29.6463 28.6517 29.5835C27.9864 28.974 27.5282 28.2513 27.0638 27.4847C27.0387 27.4408 27.0073 27.4031 26.9822 27.3591C26.9571 27.3653 26.932 27.3653 26.9069 27.3653Z" fill="#B8B099"/>
<path d="M5.5044 0.584381C5.71779 0.609516 5.79311 0.640934 5.93119 0.810593C5.97512 0.87343 6.01278 0.94255 6.05672 1.01167C6.12576 1.11849 6.12576 1.11849 6.20108 1.2316C6.25129 1.307 6.3015 1.38869 6.35171 1.47038C6.42702 1.58977 6.42702 1.58977 6.50234 1.70916C6.6467 1.93537 6.79106 2.16786 6.93541 2.39408C6.98562 2.46948 6.98562 2.46948 7.03583 2.55117C8.05889 4.17235 8.68025 6.08259 9.3581 7.87343C9.42714 8.04937 9.4899 8.22531 9.55894 8.40126C11.0653 12.3788 12.3457 16.4443 13.6449 20.491C13.7327 20.7738 13.8269 21.0503 13.921 21.333C13.9399 21.3959 13.965 21.4587 13.9838 21.5215C14.0215 21.6409 14.0654 21.7603 14.1093 21.8797C14.1846 22.1122 14.2474 22.3007 14.2474 22.5395C14.329 22.5395 14.4106 22.5395 14.4985 22.5395C14.806 22.5395 15.1135 22.5332 15.4211 22.5332C15.5529 22.5332 15.6847 22.5332 15.8165 22.5332C16.0048 22.5332 16.1994 22.5332 16.3877 22.5269C16.4441 22.5269 16.5069 22.5269 16.5634 22.5269C16.8772 22.5269 17.122 22.5521 17.4107 22.6966C17.4107 22.9479 17.3793 23.0987 17.2036 23.281C17.0969 23.3689 16.9902 23.4569 16.8772 23.5512C16.7078 23.702 16.6011 23.8528 16.5069 24.0539C16.5508 24.1167 16.6011 24.1795 16.6513 24.2487C17.0027 24.7325 16.9902 25.3106 16.9839 25.8824C16.9839 25.9641 16.9839 26.0458 16.9839 26.1338C16.9714 26.9946 16.8709 27.8429 16.7517 28.6975C16.714 28.9551 16.6826 29.2127 16.645 29.4767C16.6199 29.6463 16.6011 29.8097 16.5759 29.9794C16.5634 30.0548 16.5571 30.1302 16.5446 30.2118C16.463 30.7774 16.35 31.4246 15.9232 31.8393C15.5968 32.0278 15.4462 32.0278 15.0759 31.9838C14.6554 31.833 14.442 31.456 14.2474 31.079C14.1407 30.7899 14.0528 30.4946 13.965 30.1993C13.8708 29.9417 13.7767 29.816 13.5696 29.6463C12.898 29.7971 12.5214 30.3878 12.1511 30.9282C12.0946 31.0099 12.0946 31.0099 12.0318 31.0978C11.8122 31.412 11.605 31.7262 11.3916 32.0467C9.74096 34.5601 7.56305 36.7092 4.6006 37.4946C4.50017 37.5198 4.50017 37.5197 4.39347 37.5512C3.56499 37.7397 2.39758 37.8528 1.65697 37.3878C1.03561 36.8851 0.73434 36.2379 0.608812 35.4587C0.451902 33.6553 0.87242 31.965 2.00845 30.5386C2.06493 30.4695 2.1277 30.4004 2.19046 30.325C2.25323 30.2496 2.31599 30.1804 2.37875 30.105C3.14447 29.2379 4.02317 28.5153 4.9709 27.8555C6.00651 27.1329 6.69691 26.36 7.312 25.254C7.88942 24.2235 8.59238 23.3878 9.63426 22.816C9.68447 22.7908 9.72841 22.7657 9.77862 22.7343C10.0736 22.5772 10.2996 22.5269 10.6322 22.5521C10.6761 22.7846 10.6699 22.9479 10.5443 23.149C10.4 23.3312 10.2556 23.5072 10.105 23.6831C9.29533 24.6508 8.69908 25.6436 8.24718 26.825C8.07144 27.2711 7.86432 27.7675 7.46891 28.0566C7.38104 28.0817 7.29944 28.1131 7.21157 28.1382C5.3161 28.798 3.25117 31.4623 2.34737 33.184C2.09004 33.7558 1.84526 34.3591 1.97079 34.9937C2.21557 35.4838 2.6047 35.7666 3.10054 35.974C4.21146 36.2505 5.34749 35.6158 6.27012 35.0566C6.61532 34.8303 6.92914 34.579 7.24296 34.3088C7.29944 34.2585 7.36221 34.2083 7.42497 34.1517C8.26601 33.4102 9.02545 32.6248 9.7033 31.7262C9.87904 31.5 10.0548 31.2738 10.2368 31.0476C10.3058 30.9596 10.3749 30.8716 10.4439 30.7837C10.4941 30.7208 10.4941 30.7208 10.5443 30.658C10.6259 30.5512 10.7075 30.4506 10.7891 30.3438C10.9397 30.1553 11.0841 29.9731 11.2347 29.7846C11.2661 29.7406 11.3038 29.7029 11.3352 29.6589C12.3206 28.4399 12.3206 28.4399 13.0423 28.2011C13.1992 28.1948 13.3624 28.2011 13.5193 28.2011C13.6135 28.2011 13.7076 28.2011 13.8018 28.2074C14.0026 28.2074 14.1972 28.2136 14.398 28.2199C14.4922 28.2199 14.5863 28.2199 14.6805 28.2262C14.7683 28.2262 14.8499 28.2262 14.9441 28.2325C15.0131 28.2262 15.0822 28.2136 15.1512 28.2074C15.5152 27.6607 15.3897 26.8752 15.3018 26.2469C15.2077 25.8447 15.101 25.5242 14.8186 25.2226C14.7244 25.1661 14.7244 25.1661 14.624 25.1158C14.5675 25.0844 14.5173 25.053 14.4608 25.0215C13.4817 24.7576 12.4775 25.2478 11.5674 25.5619C11.2034 25.675 10.8519 25.7253 10.469 25.7316C10.4063 25.7316 10.3435 25.7316 10.2807 25.7316C10.1113 25.7127 10.1113 25.7127 9.88532 25.5619C9.84138 25.3106 9.82883 25.1284 9.96691 24.9084C10.2745 24.5503 10.6197 24.2864 11.0088 24.0224C11.0967 23.9596 11.0967 23.9596 11.1845 23.8968C11.3289 23.7962 11.4732 23.702 11.6176 23.6014C11.1092 21.9677 10.5883 20.3402 10.0611 18.7127C7.04839 9.39408 7.04839 9.39408 6.10693 5.81239C6.0881 5.74955 6.07555 5.68671 6.05672 5.61759C5.59854 3.88959 5.27845 2.36894 5.5044 0.584381ZM6.63415 3.60054C6.50862 3.98384 6.61532 4.29174 6.71574 4.66876C6.73457 4.74417 6.7534 4.81329 6.7785 4.88869C7.34965 6.98743 8.00867 9.05476 8.70535 11.1158C8.86854 11.5996 9.03173 12.0835 9.18864 12.5673C10.8519 17.7011 10.8519 17.7011 12.8917 22.6903C12.9859 22.4013 12.9294 22.2693 12.8478 21.974C12.8289 21.8986 12.8289 21.8986 12.8038 21.8232C12.7599 21.6535 12.7097 21.4838 12.6595 21.3142C12.6406 21.2576 12.6281 21.1948 12.6093 21.1382C12.3143 20.0763 11.9879 19.0269 11.649 17.9776C11.6176 17.877 11.6176 17.877 11.5862 17.7702C11.2285 16.6517 10.8582 15.5395 10.4878 14.4273C10.2431 13.6984 10.0046 12.9758 9.76606 12.2469C9.5966 11.7379 9.42714 11.2352 9.26395 10.7262C9.1447 10.3555 9.01917 9.99102 8.89992 9.62029C8.20324 7.50898 8.20324 7.50898 7.46263 5.41023C7.43125 5.32226 7.39987 5.23429 7.36848 5.14004C7.17392 4.61849 6.96052 4.10952 6.72202 3.60682C6.68436 3.60054 6.65925 3.60054 6.63415 3.60054Z" fill="#BAB19A"/>
<path d="M22.9904 24.1984C23.1599 24.167 23.1599 24.167 23.367 24.1984C23.6243 24.5251 23.7624 24.8645 23.8817 25.2603C23.9005 25.3232 23.9193 25.3797 23.9382 25.4425C24.321 26.7181 24.6034 28.0251 24.8733 29.3259C24.8733 29.2756 24.8671 29.2316 24.8671 29.1813C24.8168 28.1634 24.7917 27.1391 24.7917 26.1212C24.7917 25.9704 24.7917 25.9704 24.7917 25.8196C24.7917 25.7253 24.7917 25.6373 24.7917 25.5431C24.7917 25.4614 24.7917 25.3797 24.7917 25.298C24.8043 25.1032 24.8043 25.1032 24.8796 24.9524C25.2436 24.9901 25.4633 25.1598 25.7395 25.386C25.8085 25.4425 25.8085 25.4425 25.8776 25.4991C26.3608 25.895 26.8316 26.3034 27.3023 26.7181C27.5282 26.9192 27.7605 27.114 27.9927 27.3151C28.294 27.5727 28.5952 27.8366 28.8902 28.1005C29.204 28.3833 29.5304 28.6535 29.8568 28.9174C30.1141 29.1248 30.3652 29.3447 30.6162 29.5583C31.0367 29.9165 31.4573 30.2684 31.8903 30.6077C31.9657 30.6706 32.041 30.7271 32.1226 30.7899C32.3485 30.9659 32.5682 31.1418 32.7941 31.3178C32.951 31.4434 33.108 31.5691 33.2711 31.6885C34.0243 32.2855 34.7963 32.851 35.5871 33.3914C35.6373 33.4228 35.6876 33.4605 35.7378 33.4919C36.2273 33.8312 36.7232 34.1517 37.2441 34.4345C38.3864 35.0754 39.4095 35.9488 40.3509 36.8537C41.3991 37.8653 41.3991 37.8654 42.7485 38.2926C42.918 38.2864 43.0937 38.2864 43.2632 38.2801C44.6251 38.2675 45.598 39.3169 46.5206 40.1966C46.6901 40.3537 46.8595 40.4982 47.0478 40.6364C47.0227 41.1266 46.8344 41.4282 46.5645 41.8366C46.4829 41.9623 46.4014 42.088 46.3198 42.2199C46.2758 42.2828 46.2382 42.3456 46.1942 42.4147C45.0959 44.1239 44.2674 45.877 44.7193 47.9569C45.2465 50.0682 46.5771 51.8654 47.8386 53.5934C48.2278 54.1275 48.5918 54.6741 48.9558 55.2271C49.0061 55.3025 49.05 55.3779 49.1065 55.4533C49.6211 56.2513 49.6211 56.2513 49.6211 56.553C49.2508 56.5215 49.0939 56.3582 48.8366 56.0943C48.7989 56.0566 48.7613 56.0189 48.7236 55.9811C48.4349 55.6795 48.1525 55.3653 47.8826 55.0449C47.7382 54.8752 47.5939 54.6993 47.4432 54.5296C47.4056 54.4856 47.3679 54.4354 47.324 54.3914C47.0855 54.1086 46.8344 53.8321 46.5834 53.5557C46.2821 53.2226 45.9997 52.8833 45.7172 52.5314C45.4787 52.2424 45.2214 51.9659 44.9703 51.6894C44.7695 51.4695 44.5686 51.2433 44.3741 51.0171C44.2674 50.8977 44.1544 50.7783 44.0352 50.6652C43.6335 51.0925 43.238 51.526 42.874 51.9785C42.623 52.2926 42.3531 52.5943 42.0769 52.8896C41.738 53.2478 41.4242 53.6185 41.1166 54.0081C40.8781 54.2971 40.6271 54.5736 40.3697 54.8501C40.2128 55.0197 40.0622 55.1894 39.9116 55.3653C39.8488 55.4345 39.8488 55.4345 39.786 55.5099C39.7044 55.6041 39.6228 55.7047 39.5475 55.8052C39.2588 56.1697 39.2588 56.1697 38.9952 56.2136C38.945 56.2011 38.8885 56.1948 38.8383 56.1822C38.8822 55.8932 38.9638 55.6921 39.1207 55.447C39.1835 55.3465 39.1835 55.3465 39.2525 55.2397C39.2965 55.1706 39.3467 55.0952 39.3906 55.026C39.4408 54.9506 39.4848 54.8752 39.535 54.7998C39.8362 54.3285 40.1501 53.8698 40.4702 53.4111C42.6355 50.3636 42.6355 50.3636 43.3824 46.7756C43.3824 46.6625 43.3824 46.6625 43.3887 46.5494C43.395 46.3169 43.395 46.0781 43.4012 45.8456C43.4075 45.6822 43.4075 45.5251 43.4138 45.3618C43.4201 44.9722 43.4326 44.5763 43.4389 44.1867C43.3761 44.1679 43.3761 44.1679 43.3134 44.149C42.9054 44.0171 42.51 43.8662 42.1146 43.7092C42.0581 43.684 41.9953 43.6589 41.9326 43.6338C41.7443 43.5583 41.5497 43.4767 41.3614 43.4013C41.261 43.3636 41.261 43.3636 41.1606 43.3196C40.0999 42.8797 39.0454 42.4273 38.0098 41.9309C37.9282 41.8932 37.9282 41.8932 37.8529 41.8555C37.5014 41.6858 37.1562 41.5099 36.8048 41.3276C36.7294 41.2899 36.6604 41.2522 36.5851 41.2145C35.2357 40.5108 33.9866 39.7442 32.769 38.8393C31.7334 38.0727 30.6351 37.4192 29.5053 36.7908C28.4007 36.175 27.3713 35.4336 26.4801 34.535C26.342 34.6732 26.3608 34.8995 26.3357 35.088C26.3295 35.1382 26.3232 35.1885 26.3169 35.2388C26.3043 35.3456 26.2918 35.4587 26.273 35.5655C26.2479 35.7415 26.229 35.9174 26.2039 36.0934C26.1725 36.3447 26.1412 36.596 26.1098 36.8537C25.2499 43.5583 24.1453 50.2505 15.032 68.0521C14.875 68.2092 14.7119 68.3725 14.5549 68.5359C14.4545 68.6364 14.3478 68.737 14.2474 68.8438C14.1972 68.8941 14.1533 68.9381 14.103 68.9883C14.0591 69.0323 14.0152 69.0763 13.9712 69.1203C13.9336 69.158 13.8959 69.1957 13.852 69.2397C13.739 69.3214 13.739 69.3214 13.5131 69.3214C13.5444 68.8627 13.7578 68.5548 13.9963 68.1777C14.0779 68.0458 14.1595 67.9075 14.2411 67.7756C14.2851 67.7065 14.3227 67.6373 14.3667 67.5682C14.9315 66.6445 15.4587 65.702 15.9232 64.7217C15.9609 64.64 15.9985 64.5583 16.0425 64.4704C16.35 63.8169 16.6387 63.1508 16.9149 62.4785C16.9337 62.4282 16.9588 62.3779 16.9776 62.3277C17.4923 61.0521 17.963 59.7576 18.4149 58.4569C18.4338 58.4066 18.4526 58.3564 18.4714 58.2998C19.5196 55.6041 19.5196 55.6041 19.9966 52.7953C19.5761 53.2101 19.1744 53.6311 18.7915 54.0772C18.3898 54.5422 17.9881 54.9758 17.5111 55.3591C17.4421 55.4156 17.373 55.4722 17.304 55.5287C16.1994 56.4147 15.0068 57.0996 13.6637 57.5583C13.5821 57.5835 13.5821 57.5835 13.4942 57.6149C12.7348 57.8663 12.0256 57.9479 11.2285 57.9417C11.1406 57.9417 11.059 57.9416 10.9649 57.9479C9.73468 57.9479 8.68652 57.5709 7.789 56.7163C6.91658 55.7235 6.68436 54.4354 6.74084 53.1472C6.86637 51.3815 7.51911 49.9363 8.39153 48.4156C8.49196 48.4156 8.59238 48.4156 8.6928 48.4156C8.69908 48.491 8.70535 48.5664 8.71163 48.6418C8.73046 48.9246 8.75556 49.2074 8.77439 49.4901C8.78695 49.6095 8.79322 49.7352 8.7995 49.8546C8.87482 50.9354 9.00034 52.123 9.81 52.9273C9.96063 53.0467 10.1113 53.1472 10.2745 53.2415C10.3309 53.2729 10.3811 53.3043 10.4376 53.3357C11.241 53.7253 12.195 53.6122 13.0172 53.3483C16.3625 52.0413 18.2706 49.2388 19.689 46.0781C20.9945 43.0934 22.4758 39.3294 22.4758 36.0431C22.4506 36.0996 22.4193 36.1625 22.3942 36.2253C21.8481 37.4066 21.2958 38.544 20.5175 39.5934C20.461 39.6688 20.4045 39.7379 20.3481 39.8196C19.689 40.6679 18.9547 41.4659 18.1011 42.1194C18.0446 42.1634 17.9881 42.2011 17.9316 42.2451C16.2872 43.4704 14.442 44.1741 12.377 43.9668C11.8561 43.86 11.3791 43.6715 11.0716 43.219C10.6322 42.4901 10.6197 41.7612 10.6197 40.9255C10.6197 40.8312 10.6197 40.737 10.6134 40.6427C10.6134 39.9452 10.6322 39.2478 11.0904 38.6948C11.3352 38.7011 11.3352 38.7011 11.6176 38.7702C11.9189 39.1472 12.0193 39.5934 12.1448 40.0521C12.2201 40.272 12.308 40.4039 12.4461 40.5799C12.4461 40.6302 12.4461 40.6804 12.4461 40.7307C12.5026 40.7496 12.5528 40.7747 12.6093 40.7998C12.7411 40.8501 12.8666 40.9066 12.9984 40.9632C13.9336 41.2962 15.101 40.8501 15.9609 40.4605C16.5571 40.1715 17.0655 39.807 17.5676 39.3734C17.6053 39.3357 17.6492 39.3043 17.6931 39.2666C21.415 36.0871 22.0803 30.281 22.6829 25.6876C22.6954 25.6122 22.7017 25.5368 22.7143 25.4551C22.7331 25.3106 22.7519 25.1661 22.7707 25.0215C22.777 24.9587 22.7896 24.8959 22.7958 24.8267C22.8021 24.7702 22.8084 24.7136 22.8147 24.6571C22.8398 24.4811 22.9025 24.3492 22.9904 24.1984ZM23.1411 24.2738C22.8649 24.6131 22.8586 24.9838 22.8147 25.4048C22.3 29.9416 21.641 35.3142 18.3898 38.7576C18.3333 38.8205 18.2768 38.8833 18.2141 38.9461C17.0341 40.184 15.4023 41.1391 13.6574 41.1957C13.1302 41.1894 12.6846 41.0512 12.3143 40.6741C12.1009 40.3977 12.0005 40.0961 11.9 39.7693C11.7494 39.2666 11.7494 39.2666 11.4544 38.833C11.2724 38.833 11.2724 38.833 11.0778 38.9084C10.5192 39.7127 10.6134 41.0072 10.7326 41.9309C10.8456 42.5467 11.0276 43.0682 11.5235 43.4767C12.3457 44.0233 13.4315 43.9856 14.3667 43.8034C16.1303 43.3384 17.5927 42.421 18.9108 41.1706C18.9735 41.1077 19.0426 41.0512 19.1053 40.9883C20.7686 39.3923 21.71 37.3375 22.6766 35.2828C22.664 35.4022 22.664 35.4022 22.6452 35.5215C22.6389 35.5718 22.6327 35.6221 22.6264 35.6786C22.6138 35.7917 22.6013 35.9048 22.5824 36.0117C22.5573 36.2379 22.526 36.4641 22.5009 36.6903C22.2059 39.1535 21.4778 41.6167 20.6242 43.9417C20.5677 44.0987 20.5112 44.2558 20.4548 44.4129C19.1932 47.9192 17.2789 51.4946 13.783 53.1598C13.4378 53.3106 13.0863 53.43 12.7285 53.5368C12.6406 53.5619 12.6406 53.5619 12.5465 53.5934C11.6364 53.8384 10.8142 53.6939 9.99829 53.254C9.22629 52.6194 8.83088 51.7585 8.71163 50.7657C8.6928 50.5332 8.67397 50.3007 8.65514 50.0682C8.61748 49.5655 8.57983 49.0628 8.51079 48.5601C7.80783 49.3707 7.35593 50.4767 7.07977 51.5009C7.05466 51.5889 7.02956 51.6768 7.00445 51.7711C6.67808 53.1661 6.7534 54.6553 7.38103 55.956C7.95219 56.8734 8.7995 57.4452 9.82255 57.7594C11.9502 58.2244 14.1533 57.4138 15.9483 56.3079C17.2726 55.4282 18.4149 54.3411 19.4443 53.1346C19.4945 53.0718 19.551 53.0153 19.6012 52.9524C19.6702 52.8707 19.6702 52.8707 19.7455 52.7828C19.8836 52.6445 20.0091 52.5691 20.1911 52.4874C19.5635 56.3079 18.0258 60.1912 16.5006 63.7289C16.463 63.8169 16.4253 63.9048 16.3877 63.9991C15.7537 65.4569 15.0006 66.8142 14.147 68.1526C14.1156 68.1966 14.0905 68.2406 14.0591 68.2908C13.9775 68.4165 13.9022 68.5422 13.8206 68.6679C13.7892 68.7307 13.7516 68.7998 13.7139 68.8627C13.739 68.9129 13.7641 68.9632 13.7892 69.0135C13.8269 68.9758 13.8645 68.9381 13.9022 68.9004C14.1595 68.6364 14.4169 68.3851 14.693 68.1463C14.6868 68.3788 15.0633 68.0961 15.9734 66.8519C16.0927 66.7136 16.2119 66.5817 16.3312 66.4434C20.8125 61.3663 22.8774 54.1589 25.4006 41.0197C25.4194 40.8941 25.4382 40.7684 25.457 40.6427C25.6453 39.4048 25.8211 38.1607 25.9529 36.9165C25.9843 36.6023 26.0282 36.2881 26.0658 35.9802C26.229 35.0503 26.229 35.0503 26.0721 34.158C26.1725 34.1329 26.273 34.1077 26.3734 34.0826C26.4675 33.7558 26.4864 33.5045 26.3671 33.1777C26.2981 32.9515 26.2981 32.9515 26.3671 32.7819C26.4675 32.5305 26.4801 32.3106 26.4926 32.0404C26.4989 31.965 26.4989 31.965 26.4989 31.8896C26.5052 31.7262 26.5177 31.5628 26.524 31.4057C26.5303 31.2487 26.5429 31.0853 26.5491 30.9282C26.5554 30.8214 26.5617 30.7208 26.568 30.614C26.5868 30.2998 26.6056 29.9856 26.637 29.6715C26.6621 29.351 26.6809 29.0368 26.6809 28.7226C26.6809 28.5969 26.6809 28.5969 26.6809 28.4713C26.6935 28.2828 26.6935 28.2828 26.5931 28.2074C26.5742 28.044 26.5617 27.8806 26.5491 27.711C26.5366 27.5727 26.5366 27.5727 26.5303 27.4345C26.524 27.3653 26.524 27.2962 26.5177 27.2208C26.568 27.2208 26.6182 27.2208 26.6684 27.2208C26.6935 27.1203 26.7186 27.0197 26.7437 26.9192C26.8943 26.9192 27.045 26.9192 27.1956 26.9192C26.9132 26.5422 26.5868 26.2594 26.2165 25.9704C26.0658 25.8447 25.9089 25.719 25.7583 25.5934C25.6453 25.4991 25.6453 25.4991 25.5386 25.4048C25.4382 25.3169 25.4382 25.3169 25.3378 25.2352C25.1683 25.0907 25.1683 25.0907 24.9361 25.1095C24.9173 26.8501 24.9298 28.5781 25.0742 30.3187C25.0867 30.57 25.093 30.8214 25.0867 31.0727C25.0616 30.9408 25.0616 30.9408 25.0365 30.8088C24.5972 28.6535 24.5972 28.6535 24.0888 26.5171C24.0637 26.4291 24.0449 26.3348 24.0197 26.2406C23.7561 25.2163 23.7561 25.2163 23.2791 24.2801C23.2415 24.2738 23.1913 24.2738 23.1411 24.2738ZM26.9069 27.3653C26.8567 27.9434 26.8065 28.5215 26.7562 29.0996C26.7311 29.3698 26.7123 29.64 26.6872 29.9039C26.6621 30.1616 26.6433 30.4255 26.6182 30.6831C26.6056 30.8276 26.5931 30.9722 26.5805 31.123C26.4675 32.4111 26.4675 32.4111 26.7876 33.6427C27.2709 34.1706 27.8986 34.4785 28.5513 34.7487C28.6266 34.7801 28.7019 34.8115 28.7772 34.8429C29.1978 35.0251 29.6246 35.1948 30.0514 35.3582C31.5138 35.9237 32.8506 36.728 34.0369 37.7585C34.6896 38.3178 35.4365 38.7513 36.1708 39.2038C36.2399 39.2478 36.3152 39.2917 36.3905 39.3357C38.4366 40.5736 40.5894 41.6104 42.7297 42.6723C42.8928 42.5215 43.0058 42.3833 43.1062 42.1822C43.1314 42.132 43.1565 42.0817 43.1816 42.0314C43.2067 41.9811 43.2318 41.9309 43.2632 41.8743C43.5393 41.3339 43.5393 41.3339 43.7088 41.1643C43.872 41.1203 43.872 41.1203 44.01 41.0889C44.0352 41.2648 44.0603 41.4345 44.0854 41.6167C44.1607 41.6167 44.236 41.6167 44.3113 41.6167C44.7004 41.2083 44.8762 40.8627 44.8636 40.2846C44.826 39.9955 44.7067 39.7442 44.5373 39.5054C44.2485 39.3106 44.1293 39.3106 43.7841 39.3546C43.4577 39.5305 43.169 39.7567 42.874 39.9892C42.5916 40.1463 42.3594 40.184 42.0518 40.1086C41.0162 39.6122 40.1814 38.544 39.3906 37.7397C38.8195 37.1616 38.2483 36.6149 37.6081 36.1122C37.5454 36.0557 37.4763 36.0054 37.4073 35.9488C37.2127 35.798 37.0433 35.7352 36.8048 35.6598C34.8967 34.956 33.1582 33.3662 31.5953 32.0969C31.4824 32.0027 31.3694 31.9147 31.2501 31.8205C30.4279 31.1732 29.6308 30.482 28.8651 29.772C28.7961 29.7092 28.727 29.6463 28.6517 29.5835C27.9864 28.974 27.5282 28.2513 27.0638 27.4847C27.0387 27.4408 27.0073 27.4031 26.9822 27.3591C26.9571 27.3653 26.932 27.3653 26.9069 27.3653Z" fill="#BAB19A"/>
<path d="M16.3814 11.2855C16.8709 11.4677 17.3417 11.5682 17.8438 11.3609C17.9756 11.298 18.1011 11.2289 18.2266 11.1535C18.8668 10.8079 19.8459 10.9273 20.5175 11.1095C21.6347 11.474 22.664 11.9013 23.2917 12.9506C23.957 14.333 24.5595 16.2873 24.0951 17.8016C24.0072 18.0467 23.9758 18.0781 23.7436 18.2289C23.4674 18.2666 23.3293 18.2478 23.0783 18.1095C22.8586 17.8645 22.8523 17.7199 22.8398 17.3995C22.8586 17.2989 22.8712 17.1921 22.89 17.0916C22.9402 16.8025 22.9402 16.8025 22.7896 16.5889C22.6138 16.4192 22.4318 16.2621 22.231 16.1176C22.2561 15.9919 22.2812 15.8662 22.3063 15.7406C22.4569 15.7092 22.6138 15.6715 22.7645 15.64C22.9277 15.6023 22.9277 15.6023 23.0595 15.439C23.0595 15.3636 23.0595 15.2881 23.0595 15.2127C22.3126 14.8546 21.277 15.1876 20.4924 15.3447C20.323 15.3824 20.1598 15.4138 19.9903 15.4452C19.4191 15.5583 18.8543 15.6903 18.2957 15.8474C18.2455 15.86 18.189 15.8725 18.1388 15.8914C17.7622 15.9982 17.5362 16.149 17.2601 16.4192C17.191 16.6203 17.1722 16.7711 17.1534 16.9785C17.1471 17.0413 17.1408 17.1104 17.1345 17.1732C17.122 17.3115 17.1157 17.4434 17.1032 17.5817C17.0655 18.0592 16.9776 18.4677 16.5948 18.7944C16.2684 18.8698 15.9797 18.8384 15.6847 18.6876C15.0884 18.254 14.8374 17.4309 14.5738 16.7648C14.4169 16.3689 14.216 16.0548 13.9399 15.7343C13.8959 15.6777 13.8457 15.6212 13.8018 15.5646C13.6511 15.439 13.5193 15.3698 13.3373 15.2881C12.9984 15.1248 12.8164 14.9488 12.6658 14.5969C12.4273 13.912 12.3959 13.1077 12.6595 12.4165C13.0235 11.719 13.5005 11.2792 14.2474 11.0341C14.9943 10.8707 15.6784 11.0215 16.3814 11.2855ZM18.917 13.4847C18.8668 13.5224 18.8166 13.5664 18.7664 13.6104C18.666 13.6921 18.5656 13.7801 18.4651 13.8618C18.4902 13.912 18.5153 13.9623 18.5405 14.0126C20.4736 14.0314 20.4736 14.0314 22.3063 13.5601C22.118 13.1329 21.7979 12.8312 21.3648 12.6553C20.4108 12.4165 19.6325 12.8941 18.917 13.4847Z" fill="#B9B09A"/>
<path d="M26.7562 26.8375C27.2709 26.8438 27.2709 26.8438 27.4843 27.0135C27.5722 27.1014 27.6538 27.1957 27.7354 27.2837C27.9048 27.4659 28.0931 27.6167 28.2814 27.7738C28.5576 27.9937 28.8275 28.2199 29.0848 28.4587C29.4049 28.7478 29.7375 29.0242 30.0702 29.3007C30.3024 29.4955 30.5346 29.6903 30.7669 29.8851C31.1874 30.2433 31.6204 30.5889 32.0535 30.9282C32.2355 31.0664 32.4113 31.211 32.5933 31.3555C34.0243 32.518 35.5118 33.5987 37.0997 34.535C38.1102 35.132 39.0015 35.8546 39.8613 36.6463C40.012 36.7783 40.1689 36.9165 40.3195 37.0485C40.4137 37.1302 40.5141 37.2181 40.6082 37.3061C41.217 37.8591 41.8949 38.412 42.7422 38.3743C42.7987 38.3743 42.8552 38.368 42.9179 38.368C43.9222 38.3492 44.5812 38.7451 45.3595 39.3609C45.3155 39.3671 45.2653 39.3797 45.2151 39.386C45.0268 39.43 45.0268 39.43 44.9076 39.6625C44.9076 39.8698 44.9076 40.0709 44.9138 40.2783C44.9264 40.8501 44.8825 41.2208 44.4933 41.6733C44.4557 41.7047 44.418 41.7361 44.3803 41.7675C44.0477 41.7361 44.0477 41.7361 43.9284 41.6167C43.9284 41.491 43.9284 41.3654 43.9284 41.2397C43.6523 41.3339 43.6335 41.4031 43.5016 41.6544C43.464 41.7235 43.4263 41.7926 43.3887 41.8618C43.351 41.9309 43.3134 42.0063 43.2757 42.0754C43.2192 42.1822 43.2192 42.1822 43.1564 42.2953C43.0623 42.4713 42.9682 42.6472 42.874 42.8294C42.4096 42.6975 41.9953 42.4776 41.5685 42.2639C41.4869 42.2199 41.4053 42.1822 41.3175 42.1382C41.1417 42.0503 40.966 41.9623 40.7902 41.8743C40.5266 41.7424 40.263 41.6104 39.9931 41.4785C38.763 40.8627 37.5454 40.2217 36.3654 39.5054C36.3026 39.4677 36.2399 39.43 36.1771 39.3923C35.2733 38.8393 34.4072 38.2487 33.585 37.5763C33.0138 37.1113 32.4301 36.7092 31.7899 36.351C31.6581 36.2756 31.5263 36.2002 31.3945 36.1248C30.7166 35.7415 30.0137 35.4713 29.2856 35.1948C27.1579 34.3905 27.1579 34.3905 26.7123 33.7747C26.6935 33.7244 26.6684 33.6804 26.6495 33.6239C26.6307 33.5736 26.6056 33.5233 26.5805 33.4731C26.4173 33.0332 26.4361 32.6059 26.4361 32.1347C26.4361 32.0467 26.4361 31.9587 26.4361 31.8707C26.4424 31.1984 26.4864 30.5323 26.5491 29.8662C26.5993 29.3321 26.6433 28.8043 26.6056 28.2702C26.5805 28.2451 26.5554 28.2199 26.5303 28.1948C26.524 28.0314 26.524 27.8618 26.524 27.6984C26.524 27.6104 26.524 27.5162 26.524 27.4219C26.524 27.3528 26.524 27.2837 26.524 27.2083C26.5742 27.2083 26.6244 27.2083 26.6746 27.2083C26.706 27.0889 26.7311 26.9632 26.7562 26.8375ZM26.9069 27.3654C26.8567 27.9434 26.8065 28.5215 26.7562 29.0996C26.7311 29.3698 26.7123 29.64 26.6872 29.904C26.6621 30.1616 26.6433 30.4255 26.6182 30.6831C26.6056 30.8276 26.5931 30.9722 26.5805 31.123C26.4675 32.4111 26.4675 32.4111 26.7876 33.6427C27.2709 34.1706 27.8985 34.4785 28.5513 34.7487C28.6266 34.7801 28.7019 34.8115 28.7772 34.8429C29.1978 35.0251 29.6246 35.1948 30.0513 35.3582C31.5137 35.9237 32.8506 36.728 34.0369 37.7585C34.6896 38.3178 35.4365 38.7513 36.1708 39.2038C36.2399 39.2478 36.3152 39.2917 36.3905 39.3357C38.4366 40.5736 40.5894 41.6104 42.7297 42.6724C42.8928 42.5215 43.0058 42.3833 43.1062 42.1822C43.1313 42.132 43.1564 42.0817 43.1816 42.0314C43.2067 41.9812 43.2318 41.9309 43.2631 41.8743C43.5393 41.3339 43.5393 41.3339 43.7088 41.1643C43.872 41.1203 43.872 41.1203 44.01 41.0889C44.0351 41.2648 44.0602 41.4345 44.0854 41.6167C44.1607 41.6167 44.236 41.6167 44.3113 41.6167C44.7004 41.2083 44.8762 40.8627 44.8636 40.2846C44.826 39.9955 44.7067 39.7442 44.5373 39.5054C44.2485 39.3106 44.1293 39.3106 43.7841 39.3546C43.4577 39.5305 43.169 39.7567 42.874 39.9892C42.5916 40.1463 42.3593 40.184 42.0518 40.1086C41.0162 39.6122 40.1814 38.544 39.3906 37.7397C38.8195 37.1616 38.2483 36.6149 37.6081 36.1122C37.5454 36.0557 37.4763 36.0054 37.4073 35.9488C37.2127 35.798 37.0432 35.7352 36.8047 35.6598C34.8967 34.956 33.1582 33.3662 31.5953 32.0969C31.4824 32.0027 31.3694 31.9147 31.2501 31.8205C30.4279 31.1733 29.6308 30.482 28.8651 29.772C28.7961 29.7092 28.727 29.6463 28.6517 29.5835C27.9864 28.974 27.5282 28.2513 27.0638 27.4847C27.0387 27.4408 27.0073 27.4031 26.9822 27.3591C26.9571 27.3654 26.932 27.3654 26.9069 27.3654Z" fill="#BAB29A"/>
<path d="M21.4841 24.5754C21.6096 24.6005 21.7351 24.6257 21.8607 24.6508C22.3 27.6041 20.9129 31.5943 19.2371 34.0135C18.1199 35.5153 16.5759 37.0171 14.6993 37.4758C14.2286 37.5386 13.8332 37.5386 13.4189 37.281C13.08 37.0171 12.8792 36.7594 12.7411 36.3447C12.716 35.9237 12.7222 35.6535 12.967 35.2891C13.4377 34.8366 13.8583 34.7424 14.4859 34.6544C15.8353 34.4533 16.9337 33.9004 17.7747 32.8133C19.1493 30.8339 19.9338 28.5153 20.7246 26.2594C20.9318 25.6688 21.1765 25.1221 21.4841 24.5754Z" fill="#B9B19A"/>
<path d="M47.1043 58.7523C47.7884 58.746 48.4663 58.746 49.1504 58.746C49.4642 58.746 49.7843 58.746 50.0981 58.7397C52.5271 58.7271 52.5271 58.7271 53.4183 58.8151C53.4999 58.8214 53.4999 58.8214 53.5878 58.8339C53.9832 58.8779 54.3473 58.9973 54.7176 59.1356C54.7113 59.5817 54.5732 59.8016 54.2719 60.1221C53.3493 60.9767 52.025 61.4291 50.7823 61.4165C49.3324 61.3034 48.4475 60.4426 47.506 59.4372C47.4683 59.3932 47.4244 59.3555 47.3867 59.3115C47.1043 59.0036 47.1043 59.0036 47.1043 58.7523Z" fill="#B8B099"/>
<path d="M37.0056 58.7334C37.2002 58.7334 37.3947 58.7334 37.5893 58.7334C38.2169 58.7334 38.8446 58.746 39.4722 58.8151C39.5287 58.8214 39.5789 58.8277 39.6354 58.8339C40.0183 58.8779 40.3384 58.9847 40.6961 59.1356C40.74 59.4372 40.6961 59.6257 40.5392 59.877C39.8865 60.6876 38.719 61.1903 37.7274 61.3788C36.3717 61.5171 35.1854 60.9452 34.1436 60.1158C33.9051 59.8833 33.7733 59.6822 33.7356 59.3492C33.7419 59.2801 33.7544 59.211 33.7607 59.1356C33.9867 58.9847 34.0996 58.947 34.357 58.9031C34.4197 58.8905 34.4888 58.8779 34.5515 58.8654C35.3737 58.7522 36.1834 58.7334 37.0056 58.7334Z" fill="#B9B19A"/>
<path d="M5.57971 0.810593C5.83076 0.89228 5.85587 0.923699 5.98767 1.13734C6.01905 1.18761 6.05671 1.24417 6.08809 1.29443C6.12575 1.35099 6.15713 1.40754 6.19479 1.46409C6.23245 1.52065 6.27011 1.58348 6.30777 1.64004C6.38308 1.75943 6.4584 1.87882 6.52744 1.9982C6.61531 2.14273 6.70946 2.28097 6.79733 2.41921C7.08604 2.87163 7.3371 3.33663 7.56932 3.82047C7.59443 3.87702 7.61953 3.92729 7.64464 3.98384C7.77017 4.25404 7.87059 4.4991 7.90825 4.80072C7.79527 4.83842 7.79527 4.83842 7.6823 4.87612C7.63209 4.92639 7.58188 4.97666 7.53166 5.02693C7.56305 5.35996 7.66347 5.66158 7.77644 5.97576C7.8141 6.0763 7.85176 6.17684 7.88314 6.28366C7.90197 6.34022 7.9208 6.39049 7.93963 6.44704C8.41663 7.77918 8.86853 9.1176 9.31416 10.456C9.33299 10.5063 9.34554 10.5503 9.36437 10.6005C9.56521 11.1975 9.75978 11.7944 9.96063 12.3914C10.0987 12.7998 10.2305 13.2083 10.3686 13.6104C10.5004 14.0126 10.6385 14.4147 10.7703 14.8169C10.8519 15.0557 10.9272 15.2882 11.0088 15.5269C11.5611 17.1733 12.082 18.8321 12.5591 20.5036C12.5716 20.5539 12.5842 20.6041 12.603 20.6544C13.1992 22.728 13.1992 22.728 13.1804 23.2873C12.8289 23.0045 12.7034 22.6275 12.5339 22.2253C12.4963 22.1436 12.4649 22.0619 12.4272 21.974C11.0339 18.5996 9.8602 15.1311 8.74928 11.6562C8.57354 11.1095 8.39153 10.5691 8.20951 10.0224C7.94591 9.24327 7.69485 8.45781 7.45007 7.67235C7.39986 7.67235 7.34965 7.67235 7.29944 7.67235C7.24923 7.54668 7.19902 7.42101 7.1488 7.29533C6.91658 7.3456 6.91658 7.3456 6.84754 7.52154C6.79733 7.52154 6.74712 7.52154 6.6969 7.52154C6.68435 7.46499 6.66552 7.41472 6.65297 7.35817C6.58393 7.10682 6.52117 6.85548 6.45213 6.60413C6.42702 6.50987 6.40191 6.4219 6.37681 6.32765C6.25756 5.89408 6.13831 5.4605 6.0065 5.02693C5.86214 4.52424 5.76172 4.01526 5.65502 3.5C5.63619 3.41831 5.62364 3.33663 5.60481 3.24865C5.47301 2.56373 5.46673 1.93537 5.52322 1.24417C5.5295 1.16248 5.53577 1.07451 5.54205 0.986535C5.56715 0.936266 5.57343 0.873429 5.57971 0.810593ZM6.63414 3.60054C6.50861 3.98384 6.61531 4.29174 6.71573 4.66876C6.73456 4.74417 6.75339 4.81329 6.7785 4.88869C7.34965 6.98743 8.00867 9.05476 8.70535 11.1158C8.86853 11.5996 9.03172 12.0835 9.18863 12.5673C10.8519 17.7011 10.8519 17.7011 12.8917 22.6903C12.9858 22.4013 12.9294 22.2693 12.8478 21.974C12.8289 21.8986 12.8289 21.8986 12.8038 21.8232C12.7599 21.6535 12.7097 21.4838 12.6595 21.3142C12.6406 21.2576 12.6281 21.1948 12.6093 21.1382C12.3143 20.0763 11.9879 19.0269 11.649 17.9776C11.6176 17.877 11.6176 17.877 11.5862 17.7702C11.2285 16.6517 10.8582 15.5395 10.4878 14.4273C10.2431 13.6984 10.0046 12.9758 9.76606 12.2469C9.5966 11.7379 9.42713 11.2352 9.26395 10.7262C9.1447 10.3555 9.01917 9.99103 8.89992 9.62029C8.20324 7.50898 8.20324 7.50898 7.46262 5.41023C7.43124 5.32226 7.39986 5.23429 7.36848 5.14004C7.17391 4.61849 6.96051 4.10952 6.72201 3.60682C6.68435 3.60054 6.65925 3.60054 6.63414 3.60054Z" fill="#BBB29B"/>
<path d="M20.0907 18.5431C20.2539 18.5557 20.4171 18.5682 20.5866 18.5871C22.526 18.7567 22.526 18.7567 22.9904 19.0646C22.9653 19.3034 22.9528 19.4102 22.7645 19.5673C22.7017 19.5987 22.6452 19.6364 22.5825 19.6679C22.1054 19.9695 22.005 20.2585 21.8544 20.7989C21.7791 20.8743 21.7791 20.8743 21.5155 20.8995C21.1326 20.8932 20.8439 20.7612 20.505 20.5916C20.4422 20.5601 20.3794 20.5287 20.3167 20.4973C19.6451 20.1643 19.0112 19.781 18.3835 19.3663C18.3333 19.3348 18.2831 19.3034 18.2266 19.2657C18.1011 19.1777 17.9756 19.0835 17.8563 18.9892C17.8249 18.7379 17.8249 18.7379 17.8563 18.5368C18.5467 18.3106 19.3815 18.4803 20.0907 18.5431Z" fill="#B9B19A"/>
</g>
<defs>
<clipPath id="clip0_22604_2">
<rect width="55" height="70" fill="white"/>
</clipPath>
</defs>
</svg>
