<svg xmlns="http://www.w3.org/2000/svg" width="32" height="26" fill="none"><path fill="#D1B06B" d="m14.885 3.875-5.475 10.2-3.45.975q.6-1.125 1.35-1.8.75-.75 1.725-.75 2.175 0 3.9 1.8 1.8 1.725 1.8 4.5 0 2.925-2.025 5.025-1.95 2.1-4.875 2.1-2.775 0-4.875-2.025Q.935 21.8.935 18.8q0-1.2.45-2.775Q1.91 14.45 3.26 11.9l6-11.1zm16.875 0-5.475 10.2-3.375.975q.525-1.125 1.275-1.8.825-.75 1.725-.75 2.175 0 3.975 1.8 1.8 1.725 1.8 4.5 0 2.925-2.025 5.025-1.95 2.1-4.875 2.1-2.775 0-4.875-2.025-2.025-2.1-2.025-5.1 0-1.2.45-2.775t1.8-4.125L26.21.8z"/></svg>