<svg xmlns="http://www.w3.org/2000/svg" width="62" height="62" fill="none"><path stroke="#D1B06B" stroke-width="2" d="M1 31C1 14.432 14.432 1 31 1c16.569 0 30 13.432 30 30 0 16.569-13.431 30-30 30C14.432 61 1 47.569 1 31Z"/><g clip-path="url(#a)"><path fill="#CCAA60" d="M39.357 23.8H22.643a.64.64 0 0 0-.455.192.66.66 0 0 0-.188.463v13.09c0 .174.068.34.188.463s.284.192.455.192h16.714c.17 0 .334-.069.455-.192a.66.66 0 0 0 .188-.463v-13.09a.66.66 0 0 0-.188-.463.64.64 0 0 0-.455-.192m-7.962 8.371a.636.636 0 0 1-.79 0l-6.293-4.983.79-1.034L31 30.825l5.899-4.67.789 1.033z"/></g><defs><clipPath id="a"><path fill="#fff" d="M22 23h18v16H22z"/></clipPath></defs></svg>