<svg xmlns="http://www.w3.org/2000/svg" width="62" height="62" fill="none"><path stroke="#D1B06B" stroke-width="2" d="M1 31C1 14.432 14.432 1 31 1c16.569 0 30 13.432 30 30 0 16.569-13.431 30-30 30C14.432 61 1 47.569 1 31Z"/><g clip-path="url(#a)"><path fill="#CCAA60" d="M38.96 34.831c-.198-.21-.897-.835-2.183-1.66-1.295-.832-2.25-1.352-2.524-1.473a.15.15 0 0 0-.149.019c-.441.344-1.184.976-1.224 1.01-.257.22-.257.22-.468.152-.37-.121-1.52-.732-2.523-1.737s-1.645-2.184-1.767-2.554c-.07-.21-.07-.21.152-.468.034-.04.667-.783 1.01-1.224a.14.14 0 0 0 .02-.149c-.122-.274-.64-1.229-1.473-2.524-.827-1.285-1.45-1.985-1.661-2.183a.15.15 0 0 0-.148-.033c-.737.254-1.449.577-2.125.966q-.98.571-1.846 1.304a.14.14 0 0 0-.048.142c.08.37.459 1.912 1.635 4.05 1.2 2.18 2.032 3.298 3.795 5.054s2.915 2.639 5.099 3.84c2.137 1.176 3.68 1.555 4.05 1.634a.15.15 0 0 0 .142-.048c.488-.576.924-1.194 1.303-1.846.389-.676.712-1.388.966-2.125a.15.15 0 0 0-.033-.147"/></g><defs><clipPath id="a"><path fill="#fff" d="M22 22h17v17H22z"/></clipPath></defs></svg>