<svg width="14" height="17" viewBox="0 0 14 17" fill="none" xmlns="http://www.w3.org/2000/svg">
<path d="M13.9672 12.8312C13.8041 12.6202 13.2281 11.9964 12.1694 11.171C11.1027 10.3385 10.3162 9.81934 10.0905 9.69829C10.0707 9.68758 10.0488 9.68365 10.0272 9.68692C10.0056 9.6902 9.98513 9.70056 9.96809 9.71688C9.60458 10.0611 8.9927 10.6933 8.95992 10.7274C8.74803 10.9479 8.74803 10.9479 8.57459 10.8792C8.26956 10.7578 7.32205 10.1468 6.4964 9.14198C5.67075 8.13714 5.14167 6.95812 5.04167 6.58814C4.98449 6.37715 4.98449 6.37715 5.16668 6.11987C5.1948 6.08003 5.71576 5.33702 5.9992 4.89608C6.01264 4.87531 6.02117 4.85049 6.02387 4.82428C6.02657 4.79807 6.02333 4.77147 6.01452 4.74732C5.91482 4.47296 5.48731 3.51821 4.80166 2.22308C4.12102 0.937808 3.60788 0.238443 3.43413 0.0403585C3.41818 0.0220881 3.39848 0.00937816 3.37708 0.00356797C3.35569 -0.00224222 3.3334 -0.0009375 3.31257 0.00734453C2.7052 0.260788 2.11918 0.584178 1.56252 0.973099C1.02514 1.35243 0.516377 1.78862 0.0421651 2.27658C0.0256114 2.29367 0.0132009 2.31591 0.00626401 2.34091C-0.000672783 2.36591 -0.00187401 2.39274 0.00278909 2.41851C0.0681034 2.78811 0.380299 4.33104 1.34907 6.46823C2.33754 8.64943 3.02256 9.76697 4.47416 11.5235C5.92576 13.2801 6.87516 14.162 8.67333 15.3623C10.4334 16.5386 11.7047 16.9181 12.0085 16.9967C12.0297 17.0023 12.0518 17.0008 12.0725 16.9924C12.093 16.984 12.1115 16.9689 12.1257 16.9488C12.5274 16.373 12.8865 15.7553 13.1988 15.1027C13.519 14.4267 13.7853 13.7152 13.9941 12.9777C14.0007 12.9526 14.0018 12.9258 13.9971 12.9C13.9923 12.8742 13.9821 12.8505 13.9672 12.8312Z" fill="#CCAA60"/>
</svg>
