<svg width="35" height="46" viewBox="0 0 35 46" fill="none" xmlns="http://www.w3.org/2000/svg">
<path fill-rule="evenodd" clip-rule="evenodd" d="M28.86 18.5734H6.63678C5.04194 18.5734 5.04194 16.1217 6.63678 16.1217H28.86C30.481 16.1217 30.481 18.5734 28.86 18.5734ZM29.4613 45.7H6.06159C3.15951 45.7 0.780319 43.301 0.780319 40.3748V6.02508C0.780319 3.0989 3.15951 0.699951 6.06159 0.699951H29.4613C32.3634 0.699951 34.7426 3.0989 34.7426 6.02508V40.3748C34.7426 43.301 32.3634 45.7 29.4613 45.7ZM6.06159 3.15162C4.4929 3.15162 3.2118 4.44336 3.2118 6.02508V40.3748C3.2118 41.9565 4.4929 43.2219 6.06159 43.2219H29.4613C31.03 43.2219 32.285 41.9565 32.285 40.3748V6.02508C32.285 4.44336 31.03 3.15162 29.4613 3.15162H6.06159ZM17.7484 40.6648C17.6438 40.6648 17.5392 40.6648 17.4346 40.6384C12.0488 39.1885 10.4017 34.417 10.4017 32.229V25.6648C10.4017 24.7158 11.4213 24.1094 12.2318 24.584C14.0358 25.6384 16.415 24.1358 16.9902 23.6613C17.4346 23.2922 18.0621 23.2922 18.5327 23.6613C19.1079 24.1358 21.461 25.6384 23.2911 24.584C24.1016 24.1094 25.1212 24.7158 25.1212 25.6648C25.1212 27.6156 25.1735 30.41 25.1212 32.2553C25.0167 34.5224 23.448 39.1885 18.0621 40.6384C17.9575 40.6648 17.853 40.6648 17.7484 40.6648ZM12.8331 32.1762C12.8593 32.5189 13.1992 36.7632 17.7484 38.1604C22.2976 36.7632 22.6636 32.5717 22.6636 32.1762V27.352C20.755 27.642 18.9249 26.8247 17.7484 26.113C16.598 26.8247 14.7679 27.642 12.8331 27.352V32.1762ZM16.7549 35.1815C16.415 35.1815 16.1012 35.0497 15.8921 34.8388L14.0881 33.0198C12.9377 31.8599 14.6633 30.12 15.8137 31.2799L16.7549 32.229L19.7092 29.2237C20.8335 28.0901 22.559 29.83 21.4348 30.9636L17.5915 34.8388C17.3823 35.0497 17.0686 35.1815 16.7549 35.1815ZM25.6441 8.18677H9.85261C8.25777 8.18677 8.25777 5.7351 9.85261 5.7351H25.6441C27.2651 5.7351 27.2651 8.18677 25.6441 8.18677ZM28.86 13.3801H6.63678C5.04194 13.3801 5.04194 10.9284 6.63678 10.9284H28.86C30.481 10.9284 30.481 13.3801 28.86 13.3801Z" fill="#D1B06B"/>
</svg>
