<svg width="43" height="46" viewBox="0 0 43 46" fill="none" xmlns="http://www.w3.org/2000/svg">
<path d="M17.697 30.5067C18.6425 32.6689 19.8452 34.7091 21.2792 36.5833C22.7165 34.7093 23.9229 32.6691 24.8724 30.5067C22.4879 30.3968 20.0815 30.3968 17.697 30.5067Z" fill="#D1B06B"/>
<path d="M9.24701 31.342C11.2535 34.1871 14.1989 36.2336 17.5652 37.1218C16.1967 35.1376 15.068 32.9983 14.2027 30.7485C12.5435 30.8914 10.8843 31.0892 9.24701 31.342Z" fill="#D1B06B"/>
<path d="M7.56573 17.4963C6.20319 20.9452 6.20319 24.7831 7.56573 28.232C9.46669 27.9133 11.3787 27.6606 13.2357 27.4738C12.5654 24.4335 12.5654 21.2838 13.2357 18.2435C11.3677 18.0677 9.46669 17.815 7.56573 17.4963Z" fill="#D1B06B"/>
<path d="M16.5982 27.2213C18.1585 27.1334 19.7188 27.0895 21.2792 27.0895C22.8506 27.0895 24.4109 27.1334 25.9712 27.2213C26.6745 24.3556 26.6745 21.3623 25.9712 18.4966C22.8497 18.6834 19.7197 18.6834 16.5982 18.4966C15.8949 21.3623 15.8949 24.3556 16.5982 27.2213Z" fill="#D1B06B"/>
<path d="M35.0036 28.232C36.3515 24.7804 36.3515 20.948 35.0036 17.4963C33.1026 17.815 31.1906 18.0677 29.3336 18.2435C30.0038 21.2838 30.0038 24.4335 29.3336 27.4738C31.1906 27.6606 33.1026 27.9133 35.0036 28.232Z" fill="#D1B06B"/>
<path d="M24.9932 8.60693C26.3692 10.5884 27.5018 12.7282 28.3667 14.9802C30.0259 14.8373 31.6852 14.6286 33.3224 14.3868C31.3116 11.5412 28.3626 9.49476 24.9932 8.60693Z" fill="#D1B06B"/>
<path d="M24.8724 15.2218C23.9253 13.0581 22.7187 11.0177 21.2792 9.14526C19.8429 11.0179 18.64 13.0584 17.697 15.2218C20.0815 15.3317 22.4879 15.3317 24.8724 15.2218Z" fill="#D1B06B"/>
<path d="M2.59128 15.111C2.8189 15.254 3.08551 15.3225 3.35392 15.3069C3.62232 15.2912 3.87916 15.1922 4.0886 15.0236C4.51786 14.6617 4.70806 13.9883 4.89665 13.4823L5.57868 11.6506H11.3855L12.0675 13.4433C12.3188 14.1025 12.625 15.0824 13.4026 15.2683C13.604 15.3149 13.8131 15.3174 14.0155 15.2757C14.2179 15.2339 14.409 15.1489 14.5755 15.0265C14.742 14.9041 14.8801 14.7471 14.9803 14.5663C15.0805 14.3855 15.1405 14.1852 15.1561 13.9791C15.0992 13.4478 14.9509 12.9303 14.7176 12.4495L10.986 3.23264C10.7792 2.58647 10.5 1.9657 10.1539 1.38213C9.62146 0.60729 8.59417 0.574239 7.71617 0.891958C6.65911 1.27446 6.34703 2.55555 5.97814 3.49199C5.97565 3.49834 2.32452 12.5275 2.32452 12.5275C1.97428 13.3955 1.59672 14.5133 2.59128 15.111ZM8.45287 3.82323L10.6061 9.47791H6.33865L8.45287 3.82323Z" fill="#D1B06B"/>
<path d="M39.0018 35.5789C39.296 35.5789 39.5782 35.462 39.7863 35.254C39.9944 35.0459 40.1113 34.7637 40.1113 34.4694C40.1113 34.1752 39.9944 33.893 39.7863 33.6849C39.5782 33.4768 39.296 33.36 39.0018 33.36H31.5903L31.7164 31.9568C31.7425 31.6638 31.6511 31.3724 31.4625 31.1467C31.2738 30.9211 31.0033 30.7795 30.7103 30.7532C30.4173 30.7269 30.1259 30.8181 29.9 31.0066C29.6742 31.1951 29.5325 31.4656 29.506 31.7585L29.3622 33.36H26.832C26.5377 33.36 26.2555 33.4768 26.0475 33.6849C25.8394 33.893 25.7225 34.1752 25.7225 34.4694C25.7225 34.7637 25.8394 35.0459 26.0475 35.254C26.2555 35.462 26.5377 35.5789 26.832 35.5789H29.1628L28.8126 39.4785C28.7866 39.7674 28.8749 40.0551 29.0586 40.2797C29.6027 40.9019 30.2083 41.4675 30.8663 41.9679C29.4722 42.8407 27.8873 43.3624 26.2474 43.4884C25.963 43.5139 25.6993 43.6482 25.5113 43.8631C25.3233 44.0781 25.2254 44.3573 25.238 44.6426C25.2507 44.928 25.3728 45.1974 25.5791 45.3949C25.7854 45.5925 26.0599 45.7029 26.3455 45.7031C26.3785 45.7031 26.4121 45.7015 26.4457 45.6988C28.7728 45.5309 31.0018 44.6939 32.8642 43.2885C34.423 44.1566 36.4387 45.1743 38.8972 45.4066C38.9329 45.4099 38.9682 45.4115 39.0028 45.4115C39.288 45.4112 39.562 45.3012 39.7682 45.1043C39.9744 44.9073 40.0968 44.6386 40.1101 44.3538C40.1234 44.069 40.0266 43.79 39.8397 43.5747C39.6528 43.3594 39.3902 43.2243 39.1063 43.1974C37.3336 43.0298 35.8338 42.2781 34.6014 41.6754C36.098 39.9104 37.1678 37.8243 37.7276 35.5789H39.0018ZM32.649 40.5158C32.0862 40.1168 31.5571 39.6724 31.0668 39.187L31.391 35.5789H35.4367C34.9107 37.4218 33.9554 39.1137 32.649 40.5158Z" fill="#D1B06B"/>
<path d="M21.287 1.57349C18.8594 1.57201 16.4496 1.98768 14.1628 2.80235L15.1895 5.33001C18.5953 4.1423 22.2735 3.97311 25.774 4.84317C29.2745 5.71322 32.4454 7.58478 34.8988 10.2288C37.3522 12.8729 38.9817 16.1748 39.5879 19.7304C40.1941 23.2861 39.7507 26.9414 38.3119 30.249H39.0041C39.7171 30.2497 40.4183 30.4316 41.0417 30.7779C42.0565 28.2617 42.5767 25.5735 42.5739 22.8604C42.5739 11.7638 33.0232 1.57349 21.287 1.57349Z" fill="#D1B06B"/>
<path d="M2.72214 23.1001C2.72009 21.6005 2.90294 20.1063 3.26657 18.6514C2.33123 18.6528 1.42033 18.3528 0.668855 17.7959C-0.138495 20.9408 -0.216045 24.2287 0.442135 27.4081C1.10031 30.5876 2.47679 33.5745 4.46634 36.1404C6.45588 38.7063 9.0058 40.7833 11.9211 42.2126C14.8365 43.6419 18.0401 44.3857 21.2869 44.387C21.5747 44.387 21.8703 44.3793 22.158 44.3638C22.2454 43.5419 22.5758 42.7648 23.1069 42.1316C23.305 41.8917 23.5323 41.6775 23.7835 41.4939C22.9564 41.6099 22.1221 41.6671 21.2869 41.6649C16.3647 41.6602 11.6454 39.7027 8.1649 36.2222C4.68436 32.7416 2.7269 28.0224 2.72214 23.1001Z" fill="#D1B06B"/>
</svg>
