<svg width="36" height="45" viewBox="0 0 36 45" fill="none" xmlns="http://www.w3.org/2000/svg">
<path d="M34.5292 10.0737L25.4794 1.02232C24.83 0.372986 23.9315 0 23.0119 0H9.30503C7.38121 0 5.81678 1.56443 5.81678 3.48826V5.81376H3.48826C1.56443 5.81376 0 7.37819 0 9.30201V41.5117C0 43.4356 1.56443 45 3.48826 45H26.245C28.1688 45 29.7332 43.4356 29.7332 41.5117V39.1757H32.0633C33.9871 39.1757 35.5515 37.6112 35.5515 35.6874V12.5396C35.5515 11.6079 35.1891 10.732 34.5292 10.0737ZM30.9126 10.2987H26.023C25.5987 10.2987 25.2529 9.95285 25.2529 9.52852V4.63893L30.9126 10.2987ZM27.0151 41.5117C27.0151 41.9361 26.6693 42.2819 26.245 42.2819H3.48826C3.06393 42.2819 2.71812 41.9361 2.71812 41.5117V9.30201C2.71812 8.87768 3.06393 8.53188 3.48826 8.53188H5.81678V35.6859C5.81678 37.6097 7.38121 39.1742 9.30503 39.1742H27.0151V41.5117ZM32.0633 36.4576H9.30503C8.88071 36.4576 8.5349 36.1117 8.5349 35.6874V3.48826C8.5349 3.06393 8.88071 2.71812 9.30503 2.71812H22.5347V9.52852C22.5347 11.4523 24.0992 13.0168 26.023 13.0168H32.8334V35.6859C32.8334 36.1117 32.4876 36.4576 32.0633 36.4576Z" fill="#D1B06B"/>
<path d="M28.9842 16.2754H12.3841C11.6336 16.2754 11.025 16.8839 11.025 17.6345C11.025 18.385 11.6336 18.9935 12.3841 18.9935H28.9857C29.7362 18.9935 30.3448 18.385 30.3448 17.6345C30.3448 16.8839 29.7347 16.2754 28.9842 16.2754Z" fill="#D1B06B"/>
<path d="M12.3841 12.2662H19.0404C19.7909 12.2662 20.3995 11.6577 20.3995 10.9072C20.3995 10.1567 19.7909 9.5481 19.0404 9.5481H12.3841C11.6336 9.5481 11.025 10.1567 11.025 10.9072C11.025 11.6577 11.6336 12.2662 12.3841 12.2662Z" fill="#D1B06B"/>
<path d="M28.9842 23.0029H12.3841C11.6336 23.0029 11.025 23.6115 11.025 24.362C11.025 25.1125 11.6336 25.721 12.3841 25.721H28.9857C29.7362 25.721 30.3448 25.1125 30.3448 24.362C30.3448 23.6115 29.7347 23.0029 28.9842 23.0029Z" fill="#D1B06B"/>
<path d="M28.9842 29.7302H12.3841C11.6336 29.7302 11.025 30.3388 11.025 31.0893C11.025 31.8398 11.6336 32.4483 12.3841 32.4483H28.9857C29.7362 32.4483 30.3448 31.8398 30.3448 31.0893C30.3448 30.3388 29.7347 29.7302 28.9842 29.7302Z" fill="#D1B06B"/>
</svg>
