<svg width="49" height="49" viewBox="0 0 49 49" fill="none" xmlns="http://www.w3.org/2000/svg">
<path fill-rule="evenodd" clip-rule="evenodd" d="M6.9854 34.5071C6.82794 34.6054 6.5313 35.2227 6.6655 35.7643C6.86509 36.5697 7.57501 36.884 7.57501 36.884C7.57501 36.884 8.68563 38.3713 8.68563 39.2362C8.68563 40.1011 8.68563 40.4372 8.388 41.1587C8.09037 41.8803 2.24803 42.7453 2 46.9992H10.5035L19.1004 47.0001C18.8524 42.7462 13.0101 41.8812 12.7124 41.1597C12.4148 40.4381 12.4148 40.1021 12.4148 39.2371C12.4148 38.3722 13.5254 36.8849 13.5254 36.8849C13.5254 36.8849 14.2353 36.5706 14.4349 35.7652C14.5691 35.2236 14.2725 34.6064 14.115 34.508C14.5359 33.2055 15.3766 28.715 10.5969 28.5532C10.5757 28.5501 10.5545 28.5506 10.5335 28.5513C5.72387 28.7141 6.5645 33.2046 6.9854 34.5071Z" stroke="#D1B06B" stroke-width="3" stroke-linecap="round" stroke-linejoin="round"/>
<path fill-rule="evenodd" clip-rule="evenodd" d="M34.8861 34.5071C34.7286 34.6054 34.432 35.2227 34.5662 35.7643C34.7658 36.5697 35.4757 36.884 35.4757 36.884C35.4757 36.884 36.5863 38.3713 36.5863 39.2362C36.5863 40.1011 36.5863 40.4372 36.2887 41.1587C35.9911 41.8803 30.1487 42.7453 29.9007 46.9992H38.4042L47.0011 47.0001C46.7531 42.7462 40.9108 41.8812 40.6131 41.1597C40.3155 40.4381 40.3155 40.1021 40.3155 39.2371C40.3155 38.3722 41.4261 36.8849 41.4261 36.8849C41.4261 36.8849 42.136 36.5706 42.3356 35.7652C42.4698 35.2236 42.1732 34.6064 42.0157 34.508C42.4366 33.2055 43.2773 28.715 38.4976 28.5532C38.4763 28.5501 38.4552 28.5506 38.4342 28.5513C33.6246 28.7141 34.4652 33.2046 34.8861 34.5071Z" stroke="#D1B06B" stroke-width="3" stroke-linecap="round" stroke-linejoin="round"/>
<path fill-rule="evenodd" clip-rule="evenodd" d="M20.9358 7.95632C20.7783 8.05466 20.4817 8.6719 20.6159 9.21347C20.8155 10.0189 21.5254 10.3332 21.5254 10.3332C21.5254 10.3332 22.636 11.8205 22.636 12.6854C22.636 13.5504 22.636 13.8864 22.3384 14.608C22.0408 15.3295 16.1984 16.1945 15.9504 20.4484H24.4539L33.0508 20.4493C32.8028 16.1954 26.9604 15.3305 26.6628 14.6089C26.3652 13.8873 26.3652 13.5513 26.3652 12.6864C26.3652 11.8214 27.4758 10.3342 27.4758 10.3342C27.4758 10.3342 28.1857 10.0198 28.3853 9.2144C28.5195 8.67283 28.2229 8.05558 28.0654 7.95725C28.4863 6.6547 29.3269 2.16422 24.5473 2.00237C24.526 1.99931 24.5049 1.99986 24.4839 2.00049C19.6742 2.16329 20.5149 6.65377 20.9358 7.95632Z" stroke="#D1B06B" stroke-width="3" stroke-linecap="round" stroke-linejoin="round"/>
<path d="M24.5005 31.2495L30.3507 34.8496" stroke="#D1B06B" stroke-width="3" stroke-linecap="round" stroke-linejoin="round"/>
<path d="M24.5006 25.3994V31.2496L18.6505 34.8497" stroke="#D1B06B" stroke-width="3" stroke-linecap="round" stroke-linejoin="round"/>
</svg>
