<svg width="55" height="45" viewBox="0 0 55 45" fill="none" xmlns="http://www.w3.org/2000/svg">
<path d="M52.1053 24.8684H51.6789L45.6667 11.8421H46.7763C47.5614 11.8421 48.3145 11.5302 48.8698 10.975C49.4249 10.4198 49.7368 9.66671 49.7368 8.88158C49.7368 8.09645 49.4249 7.34341 48.8698 6.78817C48.3145 6.23296 47.5614 5.92105 46.7763 5.92105H30.9079C30.6969 5.65976 30.4587 5.42158 30.1974 5.21053V2.96053C30.1974 2.17535 29.8854 1.42232 29.3303 0.867115C28.775 0.311909 28.022 0 27.2368 0C26.4517 0 25.6987 0.311909 25.1434 0.867115C24.5882 1.42232 24.2763 2.17535 24.2763 2.96053V5.21053C24.015 5.42158 23.7768 5.65976 23.5658 5.92105H7.69737C6.91219 5.92105 6.15916 6.23296 5.60396 6.78817C5.04875 7.34341 4.73684 8.09645 4.73684 8.88158C4.73684 9.66671 5.04875 10.4198 5.60396 10.975C6.15916 11.5302 6.91219 11.8421 7.69737 11.8421H8.80697L2.79474 24.8684H2.36842C1.74028 24.8684 1.13786 25.1179 0.693699 25.5621C0.249525 26.0063 0 26.6087 0 27.2368C0.00188289 28.8066 0.626305 30.3115 1.73631 31.4216C2.84632 32.5316 4.35126 33.156 5.92105 33.1579H15.3947C16.9645 33.156 18.4694 32.5316 19.5795 31.4216C20.6895 30.3115 21.3139 28.8066 21.3158 27.2368C21.3158 26.6087 21.0663 26.0063 20.6221 25.5621C20.1779 25.1179 19.5755 24.8684 18.9474 24.8684H18.5211L12.5088 11.8421H23.5658C23.7763 12.1039 24.0145 12.3421 24.2763 12.5526L24.3201 32.7564C23.586 33.1713 22.9498 33.739 22.4543 34.4212C21.9588 35.1034 21.6157 35.8842 21.4484 36.7105H11.8421C10.2723 36.7124 8.76737 37.3369 7.65737 38.4468C6.54736 39.5569 5.92294 41.0618 5.92105 42.6316C5.92105 43.2597 6.17058 43.8621 6.61475 44.3063C7.05891 44.7505 7.66133 45 8.28947 45H46.1842C46.8123 45 47.4147 44.7505 47.8589 44.3063C48.3031 43.8621 48.5526 43.2597 48.5526 42.6316C48.5507 41.0618 47.9263 39.5569 46.8163 38.4468C45.7063 37.3369 44.2014 36.7124 42.6316 36.7105H33.0253C32.8629 35.8916 32.5264 35.1173 32.0385 34.44C31.5506 33.7627 30.9226 33.1982 30.1974 32.7849V12.5526C30.4587 12.3416 30.6969 12.1035 30.9079 11.8421H41.9684L35.9526 24.8684H35.5263C34.8982 24.8684 34.2958 25.1179 33.8516 25.5621C33.4074 26.0063 33.1579 26.6087 33.1579 27.2368C33.1598 28.8066 33.7842 30.3115 34.8942 31.4216C36.0043 32.5316 37.5092 33.156 39.0789 33.1579H48.5526C50.1224 33.156 51.6273 32.5316 52.7374 31.4216C53.8474 30.3115 54.4718 28.8066 54.4737 27.2368C54.4737 26.6087 54.2242 26.0063 53.78 25.5621C53.3358 25.1179 52.7334 24.8684 52.1053 24.8684ZM15.3947 30.7895H5.92105C4.97884 30.7895 4.07521 30.4151 3.40896 29.7489C2.74271 29.0827 2.36842 28.179 2.36842 27.2368H18.9474C18.9474 28.179 18.573 29.0827 17.9068 29.7489C17.2406 30.4151 16.3369 30.7895 15.3947 30.7895ZM5.40355 24.8684L10.6579 13.4846L15.9122 24.8684H5.40355ZM24.8684 8.88158C24.8684 8.41311 25.0073 7.95529 25.2676 7.5658C25.5278 7.17632 25.8977 6.87271 26.3304 6.69344C26.7633 6.51419 27.2394 6.46728 27.6989 6.55867C28.1583 6.65005 28.5803 6.87562 28.9116 7.20687C29.2428 7.53809 29.4684 7.96014 29.5598 8.4195C29.6511 8.87897 29.6042 9.35514 29.425 9.78797C29.2457 10.2207 28.9421 10.5906 28.5526 10.8508C28.1631 11.1111 27.7053 11.25 27.2368 11.25C26.6087 11.25 26.0063 11.0005 25.5621 10.5563C25.1179 10.1121 24.8684 9.50968 24.8684 8.88158ZM26.6447 2.96053C26.6447 2.80349 26.7071 2.65288 26.8181 2.54185C26.9292 2.43081 27.0798 2.36842 27.2368 2.36842C27.3939 2.36842 27.5445 2.43081 27.6556 2.54185C27.7665 2.65288 27.8289 2.80349 27.8289 2.96053V4.20513C27.6331 4.17241 27.4353 4.15224 27.2368 4.14474C27.0384 4.15224 26.8406 4.17241 26.6447 4.20513V2.96053ZM7.69737 9.47368C7.54033 9.47368 7.38972 9.41128 7.27869 9.30031C7.16765 9.18924 7.10526 9.03861 7.10526 8.88158C7.10526 8.72455 7.16765 8.57392 7.27869 8.46284C7.38972 8.35188 7.54033 8.28947 7.69737 8.28947H22.5604C22.5277 8.48534 22.5075 8.68311 22.5 8.88158C22.5075 9.08005 22.5277 9.27782 22.5604 9.47368H7.69737ZM46.1842 42.6316H8.28947C8.28947 41.6894 8.66377 40.7858 9.33002 40.1195C9.99626 39.4533 10.8999 39.0789 11.8421 39.0789H42.6316C43.5737 39.0789 44.4774 39.4533 45.1436 40.1195C45.8099 40.7858 46.1842 41.6894 46.1842 42.6316ZM28.993 34.8158C29.7268 35.2374 30.2829 35.9105 30.5586 36.7105H23.9211C24.1967 35.9105 24.7528 35.2374 25.4866 34.8158C25.8435 34.6103 26.1394 34.3136 26.3439 33.9561C26.5486 33.5987 26.6543 33.1932 26.6507 32.7813V13.558C26.8465 13.5907 27.0443 13.611 27.2428 13.6184C27.4412 13.611 27.639 13.5907 27.8349 13.558V32.7849C27.8312 33.1956 27.9365 33.5998 28.1399 33.9566C28.3434 34.3133 28.6378 34.6099 28.993 34.8158ZM31.9133 8.28947H46.7763C46.9333 8.28947 47.084 8.35188 47.1951 8.46284C47.306 8.57392 47.3684 8.72455 47.3684 8.88158C47.3684 9.03861 47.306 9.18924 47.1951 9.30031C47.084 9.41128 46.9333 9.47368 46.7763 9.47368H31.9133C31.946 9.27782 31.9662 9.08005 31.9737 8.88158C31.9662 8.68311 31.946 8.48534 31.9133 8.28947ZM43.8158 13.4846L49.0701 24.8684H38.5614L43.8158 13.4846ZM48.5526 30.7895H39.0789C38.1368 30.7895 37.2331 30.4151 36.5669 29.7489C35.9006 29.0827 35.5263 28.179 35.5263 27.2368H52.1053C52.1053 28.179 51.7309 29.0827 51.0647 29.7489C50.3985 30.4151 49.4948 30.7895 48.5526 30.7895Z" fill="#D1B06B"/>
</svg>
