<svg width="57" height="45" viewBox="0 0 57 45" fill="none" xmlns="http://www.w3.org/2000/svg">
<path fill-rule="evenodd" clip-rule="evenodd" d="M53.2399 6.28924H3.1278C1.41256 6.28924 0 4.91031 0 3.16143C0 1.41256 1.41256 0 3.1278 0H53.2399C54.9888 0 56.4013 1.41256 56.4013 3.16143C56.4013 4.87668 54.9888 6.28924 53.2399 6.28924Z" fill="#D1B06B"/>
<path fill-rule="evenodd" clip-rule="evenodd" d="M53.2399 44.9999H3.1278C1.41256 44.9999 0 43.5874 0 41.8721C0 40.1232 1.41256 38.7107 3.1278 38.7107H53.2399C54.9888 38.7107 56.4013 40.1232 56.4013 41.8721C56.4013 43.5874 54.9888 44.9999 53.2399 44.9999Z" fill="#D1B06B"/>
<path fill-rule="evenodd" clip-rule="evenodd" d="M4.37219 40.6277C3.76681 40.6277 3.26233 40.1232 3.26233 39.5179V5.51563C3.26233 4.91025 3.76681 4.40576 4.37219 4.40576C4.97758 4.40576 5.48206 4.91025 5.48206 5.51563V39.4842C5.48206 40.1232 4.97758 40.6277 4.37219 40.6277ZM10.3251 40.6277C9.71973 40.6277 9.21524 40.1232 9.21524 39.5179V25.5268C9.21524 24.9215 9.71973 24.417 10.3251 24.417C10.9641 24.417 11.435 24.9215 11.435 25.5268V39.5179C11.435 40.1232 10.9305 40.6277 10.3251 40.6277ZM10.3251 20.6165C9.71973 20.6165 9.21524 20.112 9.21524 19.473V5.51563C9.21524 4.91025 9.71973 4.40576 10.3251 4.40576C10.9641 4.40576 11.435 4.91025 11.435 5.51563V19.473C11.435 20.112 10.9641 20.6165 10.3251 20.6165ZM16.278 40.6277C15.6726 40.6277 15.1682 40.1232 15.1682 39.5179V5.51563C15.1682 4.91025 15.6726 4.40576 16.278 4.40576C16.917 4.40576 17.3879 4.91025 17.3879 5.51563V39.4842C17.3879 40.1232 16.917 40.6277 16.278 40.6277ZM22.2309 40.6277C21.6256 40.6277 21.1211 40.1232 21.1211 39.5179V5.51563C21.1211 4.91025 21.6256 4.40576 22.2309 4.40576C22.87 4.40576 23.3744 4.91025 23.3744 5.51563V39.4842C23.3744 40.1232 22.87 40.6277 22.2309 40.6277ZM28.1839 40.6277C27.5785 40.6277 27.074 40.1232 27.074 39.5179V5.51563C27.074 4.91025 27.5785 4.40576 28.1839 4.40576C28.8229 4.40576 29.3274 4.91025 29.3274 5.51563V39.4842C29.3274 40.1232 28.8229 40.6277 28.1839 40.6277ZM34.1368 40.6277C33.5314 40.6277 33.0269 40.1232 33.0269 39.5179V5.51563C33.0269 4.91025 33.5314 4.40576 34.1368 4.40576C34.7758 4.40576 35.2803 4.91025 35.2803 5.51563V39.4842C35.2803 40.1232 34.7758 40.6277 34.1368 40.6277ZM40.0897 40.6277C39.4843 40.6277 38.9798 40.1232 38.9798 39.5179V5.51563C38.9798 4.91025 39.4843 4.40576 40.0897 4.40576C40.7287 4.40576 41.2332 4.91025 41.2332 5.51563V39.4842C41.2332 40.1232 40.7287 40.6277 40.0897 40.6277ZM46.0762 40.6277C45.4372 40.6277 44.9327 40.1232 44.9327 39.5179V5.51563C44.9327 4.91025 45.4372 4.40576 46.0762 4.40576C46.6816 4.40576 47.1861 4.91025 47.1861 5.51563V39.4842C47.1861 40.1232 46.6816 40.6277 46.0762 40.6277ZM52.0291 40.6277C51.3901 40.6277 50.8856 40.1232 50.8856 39.5179V5.51563C50.8856 4.91025 51.3901 4.40576 52.0291 4.40576C52.6345 4.40576 53.139 4.91025 53.139 5.51563V39.4842C53.139 40.1232 52.6345 40.6277 52.0291 40.6277Z" fill="#D1B06B"/>
<path fill-rule="evenodd" clip-rule="evenodd" d="M16.278 26.3004H4.37219C3.93497 26.3004 3.59865 25.964 3.59865 25.5268V19.473C3.59865 19.0358 3.93497 18.6995 4.37219 18.6995H16.278C16.7152 18.6995 17.0852 19.0358 17.0852 19.473V25.5268C17.0852 25.964 16.7152 26.3004 16.278 26.3004ZM12.1749 22.9708C12.4103 22.9708 12.6121 22.769 12.6121 22.4999C12.6121 22.2645 12.4103 22.0627 12.1749 22.0627H8.47533C8.2399 22.0627 8.03811 22.2645 8.03811 22.4999C8.03811 22.769 8.2399 22.9708 8.47533 22.9708H12.1749Z" fill="#D1B06B"/>
</svg>
