<svg width="51" height="47" viewBox="0 0 51 47" fill="none" xmlns="http://www.w3.org/2000/svg">
<path d="M16.2143 36.3574H1.80357C1.59045 36.3574 1.38606 36.2727 1.23536 36.122C1.08466 35.9713 1 35.7669 1 35.5538C1 27.6038 7.34288 21.1323 15.1375 21.1323C15.3507 21.1323 15.555 21.217 15.7057 21.3677C15.8564 21.5184 15.9411 21.7228 15.9411 21.9359C15.9411 22.149 15.8564 22.3534 15.7057 22.5041C15.555 22.6548 15.3507 22.7395 15.1375 22.7395C11.9163 22.776 8.82992 24.0382 6.50615 26.2694C4.18243 28.5006 2.79591 31.5331 2.62858 34.7502H16.2143C16.4274 34.7502 16.6318 34.8349 16.7825 34.9856C16.9332 35.1362 17.0179 35.3407 17.0179 35.5538C17.0179 35.7669 16.9332 35.9713 16.7825 36.122C16.6318 36.2727 16.4274 36.3574 16.2143 36.3574Z" fill="#D1B06B" stroke="#D1B06B" stroke-width="1.5"/>
<path d="M15.1429 18.6786C13.3946 18.6786 11.6857 18.1602 10.232 17.1889C8.77843 16.2176 7.64545 14.8372 6.97644 13.222C6.30739 11.6068 6.13237 9.8295 6.47346 8.11484C6.8145 6.40017 7.65637 4.82517 8.89254 3.58895C10.1288 2.35279 11.7038 1.51092 13.4184 1.16985C15.1331 0.828781 16.9104 1.00383 18.5256 1.67286C20.1407 2.34186 21.5212 3.47485 22.4925 4.92846C23.4638 6.38207 23.9822 8.09105 23.9822 9.83931C23.9794 12.1828 23.0472 14.4294 21.3901 16.0865C19.733 17.7436 17.4864 18.6758 15.1429 18.6786ZM15.1429 2.60715C13.7125 2.60715 12.3143 3.03133 11.1249 3.82601C9.93558 4.62069 9.00863 5.75019 8.46123 7.07169C7.91389 8.3932 7.77064 9.84734 8.0497 11.2502C8.32875 12.6532 9.01757 13.9418 10.029 14.9532C11.0404 15.9647 12.329 16.6535 13.732 16.9325C15.1349 17.2116 16.589 17.0684 17.9105 16.521C19.232 15.9736 20.3615 15.0466 21.1562 13.8573C21.9509 12.6679 22.375 11.2697 22.375 9.83931C22.3722 7.92209 21.6094 6.08421 20.2537 4.72853C18.898 3.37285 17.0601 2.60999 15.1429 2.60715Z" fill="#D1B06B" stroke="#D1B06B" stroke-width="1.5"/>
<path d="M15.1322 27.8235C12.2916 27.8255 9.50422 27.0532 7.06966 25.5896C6.97929 25.5343 6.90064 25.4619 6.83823 25.3763C6.77587 25.2906 6.73098 25.1936 6.70607 25.0906C6.68121 24.9876 6.67687 24.8807 6.69327 24.7761C6.70971 24.6714 6.74657 24.571 6.8018 24.4806C6.91334 24.2981 7.09286 24.1673 7.30082 24.1171C7.40379 24.0921 7.51066 24.0878 7.61529 24.1043C7.71997 24.1207 7.82036 24.1576 7.91073 24.2128C10.0962 25.5264 12.5985 26.2191 15.1483 26.2164C15.3614 26.2164 15.5658 26.301 15.7165 26.4517C15.8672 26.6024 15.9518 26.8068 15.9518 27.0199C15.9518 27.233 15.8672 27.4374 15.7165 27.5881C15.5658 27.7388 15.3614 27.8235 15.1483 27.8235H15.1322Z" fill="#D1B06B" stroke="#D1B06B" stroke-width="1.5"/>
<path d="M22.1018 8.70337C21.2446 8.73166 20.3906 8.58573 19.5913 8.27453C18.7921 7.96328 18.0643 7.49319 17.4518 6.89265C15.8447 7.79266 11.3232 9.78552 7.66431 6.94087C7.58095 6.87615 7.51115 6.79564 7.45892 6.70398C7.40669 6.61226 7.37299 6.51117 7.35981 6.40644C7.34663 6.30171 7.35419 6.19542 7.3821 6.09363C7.40995 5.99185 7.45763 5.89655 7.52235 5.81319C7.65306 5.64481 7.84533 5.53531 8.05683 5.50869C8.16151 5.49551 8.2678 5.50306 8.36958 5.53097C8.47137 5.55883 8.56667 5.60651 8.65003 5.67122C12.1965 8.43016 17.1358 5.21586 17.184 5.18372C17.2733 5.12436 17.3736 5.08349 17.4789 5.06345C17.5842 5.04342 17.6925 5.0447 17.7973 5.06715C17.9022 5.0896 18.0014 5.13283 18.0893 5.19428C18.1772 5.25567 18.2519 5.33404 18.309 5.42479C18.3518 5.48908 19.4608 7.12301 22.1018 7.12301C22.315 7.12301 22.5194 7.20771 22.6701 7.35841C22.8208 7.5091 22.9054 7.71348 22.9054 7.92659C22.9054 8.13969 22.8208 8.34412 22.6701 8.49482C22.5194 8.64552 22.315 8.73016 22.1018 8.73016V8.70337Z" fill="#D1B06B" stroke="#D1B06B" stroke-width="1.5"/>
<path d="M48.893 30.4643H34.4287C34.2156 30.4643 34.0112 30.3796 33.8605 30.2289C33.7098 30.0782 33.6251 29.8739 33.6251 29.6608C33.6251 29.4476 33.7098 29.2432 33.8605 29.0925C34.0112 28.9418 34.2156 28.8572 34.4287 28.8572H48.052C47.8797 26.7036 46.909 24.692 45.3301 23.2172C43.7513 21.7425 41.6783 20.9109 39.518 20.8857C37.6776 20.8817 35.887 21.4842 34.4233 22.6C34.253 22.7195 34.043 22.7683 33.8374 22.7361C33.6318 22.704 33.4467 22.5933 33.3211 22.4274C33.1955 22.2615 33.1391 22.0534 33.1638 21.8468C33.1886 21.6401 33.2925 21.4512 33.4537 21.3197C35.1958 19.9911 37.3271 19.2738 39.518 19.2786C42.2437 19.3083 44.8462 20.4181 46.7545 22.3646C48.6628 24.311 49.7209 26.935 49.6966 29.6608C49.6966 29.8739 49.612 30.0782 49.4613 30.2289C49.3106 30.3796 49.1061 30.4643 48.893 30.4643Z" fill="#D1B06B" stroke="#D1B06B" stroke-width="1.5"/>
<path d="M39.518 17.6071C38.1405 17.6071 36.7941 17.1986 35.6488 16.4334C34.5035 15.6682 33.6109 14.5804 33.0838 13.3079C32.5567 12.0354 32.4188 10.6351 32.6875 9.28409C32.9562 7.93317 33.6195 6.69224 34.5934 5.71826C35.5674 4.74427 36.8084 4.081 38.1593 3.81229C39.5102 3.54357 40.9105 3.68147 42.1831 4.20861C43.4556 4.7357 44.5433 5.62836 45.3086 6.77362C46.0738 7.91887 46.4823 9.26534 46.4823 10.6428C46.4823 12.4898 45.7485 14.2612 44.4425 15.5673C43.1364 16.8734 41.365 17.6071 39.518 17.6071ZM39.518 5.28561C38.4584 5.28561 37.4227 5.59981 36.5417 6.18846C35.6607 6.7771 34.9741 7.61378 34.5686 8.59269C34.1631 9.57155 34.057 10.6487 34.2638 11.6879C34.4704 12.7271 34.9807 13.6816 35.7299 14.4309C36.4791 15.1801 37.4336 15.6903 38.4728 15.897C39.512 16.1037 40.5892 15.9976 41.568 15.5921C42.5469 15.1867 43.3836 14.5 43.9723 13.619C44.5609 12.7381 44.8751 11.7023 44.8751 10.6428C44.8751 9.22194 44.3107 7.85935 43.306 6.85467C42.3014 5.85004 40.9388 5.28561 39.518 5.28561Z" fill="#D1B06B" stroke="#D1B06B" stroke-width="1.5"/>
<path d="M43.6645 11.393C42.0128 11.3796 40.4197 10.7796 39.1695 9.70021C37.9193 8.62075 37.0935 7.13216 36.8395 5.5001C36.824 5.39456 36.8295 5.28704 36.8555 5.1836C36.8816 5.0802 36.9278 4.98292 36.9915 4.89736C37.0552 4.81181 37.135 4.73965 37.2266 4.68495C37.3182 4.63026 37.4197 4.59415 37.5252 4.57867C37.6307 4.56319 37.7382 4.56865 37.8416 4.59474C37.9451 4.62083 38.0423 4.66701 38.1279 4.7307C38.2135 4.79435 38.2856 4.87427 38.3403 4.96583C38.395 5.05744 38.4311 5.15885 38.4466 5.26438C38.5628 6.03303 38.8462 6.7668 39.2768 7.414C39.7074 8.06114 40.2747 8.60602 40.9388 9.01005C41.6029 9.41414 42.3475 9.66759 43.1203 9.75255C43.8929 9.83757 44.6748 9.75196 45.4109 9.50189C45.5108 9.4667 45.6166 9.45159 45.7224 9.45732C45.8281 9.46305 45.9317 9.48952 46.0273 9.53532C46.1228 9.58107 46.2083 9.6452 46.279 9.72405C46.3498 9.80286 46.4043 9.89484 46.4395 9.99475C46.4746 10.0947 46.4898 10.2005 46.4841 10.3063C46.4783 10.412 46.4518 10.5156 46.4061 10.6111C46.3603 10.7066 46.2962 10.7922 46.2173 10.8629C46.1385 10.9336 46.0465 10.9881 45.9466 11.0233C45.2121 11.274 44.4406 11.399 43.6645 11.393Z" fill="#D1B06B" stroke="#D1B06B" stroke-width="1.5"/>
<path d="M47.2858 24.5715C47.1366 24.5715 46.9903 24.5299 46.8634 24.4515C46.7364 24.373 46.6338 24.2608 46.5671 24.1273C46.5004 23.9938 46.4721 23.8444 46.4855 23.6958C46.4989 23.5471 46.5535 23.4052 46.643 23.2858C48.3466 21.0197 47.4198 18.834 46.3483 16.3215C45.6251 14.6072 44.8751 12.85 44.8751 10.9108C44.8751 10.6976 44.9598 10.4932 45.1105 10.3425C45.2612 10.1918 45.4656 10.1072 45.6787 10.1072C45.8918 10.1072 46.0962 10.1918 46.2469 10.3425C46.3976 10.4932 46.4823 10.6976 46.4823 10.9108C46.4823 12.5179 47.1626 14.125 47.8269 15.684C48.9894 18.4161 50.1894 21.2393 47.9287 24.2554C47.8533 24.3543 47.756 24.4342 47.6445 24.4891C47.5329 24.5439 47.4101 24.5721 47.2858 24.5715Z" fill="#D1B06B" stroke="#D1B06B" stroke-width="1.5"/>
<path d="M31.0644 19.1552C30.9786 19.1548 30.8936 19.1404 30.8126 19.1124C30.7114 19.083 30.6171 19.0337 30.5353 18.9675C30.4534 18.9012 30.3856 18.8193 30.3357 18.7265C30.2858 18.6338 30.2549 18.532 30.2448 18.4272C30.2347 18.3223 30.2456 18.2165 30.2769 18.1159C30.2769 18.0517 30.3786 17.8534 30.5018 17.5802C31.0375 16.3641 32.5643 12.6677 32.5643 10.932C32.5643 10.7189 32.649 10.5145 32.7997 10.3638C32.9504 10.2131 33.1548 10.1284 33.3679 10.1284C33.581 10.1284 33.7854 10.2131 33.9361 10.3638C34.0868 10.5145 34.1715 10.7189 34.1715 10.932C34.1715 12.7749 32.9232 15.9624 31.9857 18.2017C31.8947 18.4213 31.8304 18.5713 31.809 18.6302C31.7514 18.782 31.6496 18.9131 31.5169 19.0066C31.3843 19.1002 31.2266 19.152 31.0644 19.1552Z" fill="#D1B06B" stroke="#D1B06B" stroke-width="1.5"/>
<path d="M34.5465 46H15.7964C15.5833 46 15.3789 45.9153 15.2282 45.7647C15.0775 45.614 14.9929 45.4095 14.9929 45.1964C14.9929 43.8598 15.2561 42.5362 15.7677 41.3012C16.2792 40.0663 17.0289 38.9442 17.9741 37.9991C18.9193 37.0539 20.0413 36.3041 21.2763 35.7926C22.5112 35.2811 23.8348 35.0178 25.1715 35.0178C26.5081 35.0178 27.8317 35.2811 29.0666 35.7926C30.3015 36.3041 31.4236 37.0539 32.3688 37.9991C33.314 38.9442 34.0637 40.0663 34.5752 41.3012C35.0867 42.5362 35.35 43.8598 35.35 45.1964C35.35 45.4095 35.2654 45.614 35.1147 45.7647C34.964 45.9153 34.7596 46 34.5465 46ZM16.6321 44.3928H33.7054C33.5127 42.2619 32.53 40.28 30.9504 38.8367C29.3707 37.3935 27.3084 36.5933 25.1688 36.5933C23.0291 36.5933 20.9668 37.3935 19.3872 38.8367C17.8075 40.28 16.8248 42.2619 16.6321 44.3928Z" fill="#D1B06B" stroke="#D1B06B" stroke-width="1.5"/>
<path d="M25.0537 33.1427C23.6762 33.1427 22.3298 32.7343 21.1845 31.969C20.0393 31.2038 19.1466 30.1161 18.6195 28.8435C18.0924 27.571 17.9545 26.1707 18.2232 24.8197C18.4919 23.4688 19.1552 22.2279 20.1291 21.2539C21.1031 20.2799 22.3441 19.6166 23.695 19.3479C25.0459 19.0792 26.4462 19.2171 27.7188 19.7443C28.9913 20.2713 30.079 21.164 30.8443 22.3093C31.6095 23.4545 32.018 24.801 32.018 26.1784C32.018 28.0255 31.2842 29.7968 29.9782 31.1029C28.6721 32.409 26.9007 33.1427 25.0537 33.1427ZM25.0537 20.8213C23.9941 20.8213 22.9584 21.1355 22.0774 21.7241C21.1964 22.3127 20.5098 23.1494 20.1043 24.1283C19.6988 25.1072 19.5927 26.1844 19.7995 27.2235C20.0061 28.2627 20.5164 29.2173 21.2656 29.9665C22.0148 30.7157 22.9693 31.2259 24.0085 31.4327C25.0477 31.6393 26.1249 31.5333 27.1037 31.1278C28.0826 30.7223 28.9193 30.0357 29.508 29.1547C30.0966 28.2737 30.4108 27.238 30.4108 26.1784C30.4108 24.7576 29.8464 23.395 28.8418 22.3903C27.8371 21.3857 26.4745 20.8213 25.0537 20.8213Z" fill="#D1B06B" stroke="#D1B06B" stroke-width="1.5"/>
<path d="M25.1715 40.3001C23.0975 40.3113 21.0598 39.7555 19.2786 38.693C19.1882 38.6385 19.1094 38.5666 19.0468 38.4817C18.9841 38.3967 18.9388 38.3002 18.9135 38.1978C18.8881 38.0953 18.8832 37.9888 18.8989 37.8845C18.9147 37.7801 18.9509 37.6798 19.0054 37.5894C19.0599 37.499 19.1317 37.4202 19.2167 37.3576C19.3017 37.2949 19.3981 37.2496 19.5006 37.2243C19.6031 37.1989 19.7095 37.1939 19.814 37.2097C19.9183 37.2255 20.0186 37.2617 20.109 37.3162C21.634 38.2318 23.3793 38.7155 25.1581 38.7155C26.9369 38.7155 28.6822 38.2318 30.2072 37.3162C30.3898 37.2061 30.6086 37.173 30.8156 37.2243C31.0225 37.2755 31.2007 37.4068 31.3108 37.5894C31.4209 37.772 31.454 37.9908 31.4027 38.1978C31.3515 38.4048 31.2201 38.5829 31.0376 38.693C29.264 39.7506 27.2364 40.3061 25.1715 40.3001Z" fill="#D1B06B" stroke="#D1B06B" stroke-width="1.5"/>
<path d="M19.9321 23.8214C22.9804 26.1786 26.4679 23.5 26.4679 23.5C26.4679 23.5 28.7661 25.9964 30.4804 23.7089" fill="white"/>
<path d="M19.9321 23.8214C22.9804 26.1786 26.4679 23.5 26.4679 23.5C26.4679 23.5 28.7661 25.9964 30.4804 23.7089" stroke="#D1B06B" stroke-width="1.5"/>
<path d="M22.7341 25.5892C21.5392 25.5983 20.377 25.1996 19.4394 24.4589C19.2711 24.3282 19.1615 24.1359 19.1349 23.9244C19.1083 23.7129 19.1667 23.4995 19.2974 23.3312C19.4282 23.1628 19.6204 23.0533 19.8319 23.0266C20.0434 23 20.2568 23.0585 20.4251 23.1892C22.9108 25.1392 25.8573 22.9642 25.9805 22.8517C26.1388 22.7318 26.3358 22.6748 26.5337 22.6916C26.7316 22.7084 26.9162 22.7979 27.0519 22.9428C27.2983 23.2106 28.0966 23.9017 28.8359 23.8589C29.0397 23.8338 29.2352 23.763 29.4078 23.6517C29.5803 23.5403 29.7255 23.3914 29.8323 23.216C29.8956 23.1316 29.9749 23.0604 30.0657 23.0067C30.1566 22.9529 30.2571 22.9176 30.3615 22.9026C30.466 22.8877 30.5724 22.8935 30.6746 22.9197C30.7768 22.9459 30.8729 22.992 30.9573 23.0553C31.0417 23.1186 31.1129 23.1979 31.1666 23.2887C31.2204 23.3795 31.2557 23.48 31.2707 23.5845C31.2856 23.6889 31.2798 23.7953 31.2536 23.8975C31.2274 23.9998 31.1813 24.0959 31.118 24.1803C30.8722 24.5484 30.5456 24.8556 30.1631 25.0784C29.7806 25.3012 29.3523 25.4338 28.9109 25.466C27.9833 25.4579 27.0888 25.1199 26.3876 24.5124C25.2871 25.1897 24.026 25.5614 22.7341 25.5892Z" fill="#D1B06B" stroke="#D1B06B" stroke-width="1.5"/>
</svg>
